<svg xmlns="http://www.w3.org/2000/svg" width="500" height="500" version="1.0" viewBox="0 0 375 375"><defs><clipPath id="a"><path d="M140 139h106v106H140Zm0 0"/></clipPath><clipPath id="b"><path d="m100.793 173.988 58.98-69.953 114.676 96.692-58.98 69.953Zm0 0"/></clipPath><clipPath id="c"><path d="m100.793 173.988 58.98-69.953 114.676 96.692-58.98 69.953Zm0 0"/></clipPath><clipPath id="d"><path d="M200 160h21v60h-21Zm0 0"/></clipPath><clipPath id="e"><path d="m100.793 173.988 58.98-69.953 114.676 96.692-58.98 69.953Zm0 0"/></clipPath><clipPath id="f"><path d="m100.793 173.988 58.98-69.953 114.676 96.692-58.98 69.953Zm0 0"/></clipPath><clipPath id="g"><path d="M172 230h53v22h-53Zm0 0"/></clipPath><clipPath id="h"><path d="m100.793 173.988 58.98-69.953 114.676 96.692-58.98 69.953Zm0 0"/></clipPath><clipPath id="i"><path d="m100.793 173.988 58.98-69.953 114.676 96.692-58.98 69.953Zm0 0"/></clipPath><clipPath id="j"><path d="M136 126h21v49h-21Zm0 0"/></clipPath><clipPath id="k"><path d="m100.793 173.988 58.98-69.953 114.676 96.692-58.98 69.953Zm0 0"/></clipPath><clipPath id="l"><path d="m100.793 173.988 58.98-69.953 114.676 96.692-58.98 69.953Zm0 0"/></clipPath><clipPath id="m"><path d="M160 126h26v43h-26Zm0 0"/></clipPath><clipPath id="n"><path d="m100.793 173.988 58.98-69.953 114.676 96.692-58.98 69.953Zm0 0"/></clipPath><clipPath id="o"><path d="m100.793 173.988 58.98-69.953 114.676 96.692-58.98 69.953Zm0 0"/></clipPath><clipPath id="p"><path d="M173 156h17v54h-17Zm0 0"/></clipPath><clipPath id="q"><path d="m100.793 173.988 58.98-69.953 114.676 96.692-58.98 69.953Zm0 0"/></clipPath><clipPath id="r"><path d="m100.793 173.988 58.98-69.953 114.676 96.692-58.98 69.953Zm0 0"/></clipPath><clipPath id="s"><path d="M133 171h38v40h-38Zm0 0"/></clipPath><clipPath id="t"><path d="m100.793 173.988 58.98-69.953 114.676 96.692-58.98 69.953Zm0 0"/></clipPath><clipPath id="u"><path d="m100.793 173.988 58.98-69.953 114.676 96.692-58.98 69.953Zm0 0"/></clipPath><clipPath id="v"><path d="M164 165h1v1h-1Zm0 0"/></clipPath><clipPath id="w"><path d="m100.793 173.988 58.98-69.953 114.676 96.692-58.98 69.953Zm0 0"/></clipPath><clipPath id="x"><path d="m100.793 173.988 58.98-69.953 114.676 96.692-58.98 69.953Zm0 0"/></clipPath><clipPath id="y"><path d="M140 139h106v106H140Zm0 0"/></clipPath><clipPath id="z"><path d="m100.793 173.988 58.98-69.953 114.676 96.692-58.98 69.953Zm0 0"/></clipPath><clipPath id="A"><path d="m100.793 173.988 58.98-69.953 114.676 96.692-58.98 69.953Zm0 0"/></clipPath><clipPath id="B"><path d="M200 160h21v60h-21Zm0 0"/></clipPath><clipPath id="C"><path d="m100.793 173.988 58.98-69.953 114.676 96.692-58.98 69.953Zm0 0"/></clipPath><clipPath id="D"><path d="m100.793 173.988 58.98-69.953 114.676 96.692-58.98 69.953Zm0 0"/></clipPath><clipPath id="E"><path d="M172 230h53v22h-53Zm0 0"/></clipPath><clipPath id="F"><path d="m100.793 173.988 58.98-69.953 114.676 96.692-58.98 69.953Zm0 0"/></clipPath><clipPath id="G"><path d="m100.793 173.988 58.98-69.953 114.676 96.692-58.98 69.953Zm0 0"/></clipPath><clipPath id="H"><path d="M136 126h21v49h-21Zm0 0"/></clipPath><clipPath id="I"><path d="m100.793 173.988 58.98-69.953 114.676 96.692-58.98 69.953Zm0 0"/></clipPath><clipPath id="J"><path d="m100.793 173.988 58.98-69.953 114.676 96.692-58.98 69.953Zm0 0"/></clipPath><clipPath id="K"><path d="M160 126h26v43h-26Zm0 0"/></clipPath><clipPath id="L"><path d="m100.793 173.988 58.98-69.953 114.676 96.692-58.98 69.953Zm0 0"/></clipPath><clipPath id="M"><path d="m100.793 173.988 58.98-69.953 114.676 96.692-58.98 69.953Zm0 0"/></clipPath><clipPath id="N"><path d="M173 156h17v54h-17Zm0 0"/></clipPath><clipPath id="O"><path d="m100.793 173.988 58.98-69.953 114.676 96.692-58.98 69.953Zm0 0"/></clipPath><clipPath id="P"><path d="m100.793 173.988 58.98-69.953 114.676 96.692-58.98 69.953Zm0 0"/></clipPath><clipPath id="Q"><path d="M133 171h38v40h-38Zm0 0"/></clipPath><clipPath id="R"><path d="m100.793 173.988 58.98-69.953 114.676 96.692-58.98 69.953Zm0 0"/></clipPath><clipPath id="S"><path d="m100.793 173.988 58.98-69.953 114.676 96.692-58.98 69.953Zm0 0"/></clipPath><clipPath id="T"><path d="M164 165h1v1h-1Zm0 0"/></clipPath><clipPath id="U"><path d="m100.793 173.988 58.98-69.953 114.676 96.692-58.98 69.953Zm0 0"/></clipPath><clipPath id="V"><path d="m100.793 173.988 58.98-69.953 114.676 96.692-58.98 69.953Zm0 0"/></clipPath></defs><g clip-path="url(#a)"><g clip-path="url(#b)"><g clip-path="url(#c)"><path fill="#a2bdb4" d="M182.957 208.734c-.027.164.094.332-.016.485-.074.105-.015.195.028.281.355.758.558 1.57.879 2.34.156.379.312.773.55 1.125.461.672.72 1.453 1.102 2.172.191.367.473.71.55 1.14.032.168.173.282.255.426.168.27.336.543.523.8.192.267.242.622.504.845-.039.457.473.562.59.922.113.343.402.57.601.855.657.934 1.543 1.648 2.336 2.45.47.468 1.008.823 1.575 1.179.8.5 1.625.96 2.421 1.473.18.117.356.242.524.37.289.223.656.27.941.524.262.238.586.426.957.488a.64.64 0 0 1 .305.16c.457.446 1.082.606 1.594.946.656.441 1.37.773 2.078 1.101.582.27 1.164.567 1.762.813.539.226 1.156.32 1.57.797.035.043.121.043.184.05.71.106 1.324.47 1.96.758.407.184.829.332 1.243.477.27.094.554.187.816.289.82.316 1.645.648 2.48.902.543.168 1.102.32 1.653.48.992.282 2.008.473 2.996.774.414.13.855.063 1.273.176.801.211 1.633.273 2.446.328 1.02.07 2.031.207 3.054.262.883.047 1.774.023 2.653.18.3.054.617 0 .945-.082-.203-.086-.398-.188-.605-.25-.762-.223-1.48-.551-2.2-.883-.355-.16-.683-.375-1.078-.473-.344-.086-.613-.375-.949-.527a8.544 8.544 0 0 1-.383-.188 12.6 12.6 0 0 1-1.3-.781c-.458-.297-.962-.523-1.399-.86-.578-.44-1.184-.847-1.734-1.331-.375-.336-.782-.649-1.176-.973-.496-.406-.973-.844-1.344-1.375-.16-.227-.426-.32-.582-.559-.226-.343-.504-.648-.766-.968-.027-.04-.039-.11-.078-.122-.57-.21-.668-.828-1.027-1.222-.418-.465-.746-1.016-1.09-1.543-.387-.598-.726-1.235-1.133-1.824-.347-.5-.574-1.098-1.093-1.473-.141-.102-.055-.332-.235-.414.11-.117.168-.246.086-.406-.094-.192-.168-.399-.289-.57-.277-.407-.36-.88-.52-1.333-.156-.449-.238-.93-.53-1.324-.126-.176-.22-.351-.223-.586-.004-.137-.067-.293-.086-.43-.043-.296-.297-.488-.325-.765-.097-.84-.437-1.621-.582-2.45-.093-.538-.32-1.054-.312-1.605a3.616 3.616 0 0 0-.145-1.082c-.078-.25-.18-.504.004-.762.04-.054.04-.12-.004-.183-.293-.403.012-.91-.226-1.324.16-.313.039-.618.008-.93-.067-.715.097-1.441-.07-2.156-.024-.09.03-.196.038-.293.043-.621.118-1.243.11-1.86-.008-.48-.035-.972.062-1.433.106-.485-.027-.973.114-1.453.062-.215.164-.426.14-.676-.078-.79.14-1.555.281-2.317.098-.504.09-1.027.274-1.527.133-.355.16-.766.297-1.137.054-.144.078-.285.101-.433.059-.414.14-.848.282-1.227.3-.82.43-1.695.84-2.472a.286.286 0 0 0 .03-.098c.114-.531.258-1.047.536-1.527.133-.23.265-.497.336-.754.133-.489.418-.832.804-1.118.09.07.11.149.125.23.102.673-.062 1.325-.226 1.958a47.94 47.94 0 0 0-.48 2.098c-.141.671-.294 1.34-.547 1.976-.063.149-.106.3-.118.477-.02.308-.09.617-.175.918-.13.465-.258.93-.29 1.41-.023.387-.207.734-.207 1.14 0 .336-.156.692-.171 1.063-.024.617-.215 1.21-.27 1.828-.047.492-.012.984-.078 1.477-.035.25.004.511-.059.77-.043.155-.039.323-.02.491.06.496.11.989-.167 1.45a.364.364 0 0 0-.043.238c.144.773.148 1.57.121 2.344-.023.636.184 1.242.121 1.875-.027.265-.059.566.02.836.109.406.074.82.132 1.23.055.395.293.77.114 1.191-.012.032.023.102.054.13.22.175.235.406.266.663.05.493.16.989.305 1.45.132.422.25.859.394 1.28.137.403.106.864.422 1.204.008.012.004.035.008.05.152.345.262.708.418 1.052.433.96.828 1.941 1.246 2.906.086.199.172.422.422.48 0 .364.117.68.347.957.364.426.555.965.88 1.418.484.672.894 1.395 1.425 2.035.375.454.653.973 1 1.442.219.297.496.55.738.832.317.363.68.68.997 1.035.445.5.937.938 1.418 1.387.488.46.972.945 1.515 1.332.883.629 1.727 1.312 2.703 1.8.809.403 1.567.899 2.383 1.274.856.395 1.727.754 2.59 1.133.57.25 1.176.426 1.766.625.515.172 1.023.363 1.55.492.95.23 1.91.465 2.895.379.453-.04.89.062 1.34.043 1.218-.059 2.441-.074 3.664-.149 1.52-.09 3.035-.238 4.55-.332.876-.05 1.754-.082 2.626-.207.257-.035.433.13.652.192-.063.078-.129.152-.191.23-1.274.399-2.61.371-3.91.602-.696.125-1.415.176-2.13.219-.234.015-.468.039-.683.113-1.285.457-2.633.64-3.961.898-1.418.274-2.844.508-4.227.922-.652.195-1.289.442-1.937.653-1.293.417-2.559.925-3.828 1.41a.249.249 0 0 0-.149.125c-.058-.032-.117-.059-.187-.032-.707.286-1.414.57-2.125.848-1.082.426-2.156.871-3.246 1.266-1.559.562-3.125 1.09-4.754 1.41-.602.117-1.2.258-1.805.347a37.805 37.805 0 0 1-3.254.348c-1.21.07-2.406.258-3.629.215-.992-.031-1.992-.004-2.976-.148-1.16-.168-2.336-.235-3.469-.625-.684-.239-1.406-.36-2.023-.766-.028-.016-.063-.024-.094-.031-.953-.14-1.711-.758-2.602-1.059-.047-.016-.097-.031-.137-.055-.59-.39-1.171-.796-1.812-1.093a2.91 2.91 0 0 1-.746-.493c-.488-.433-1.074-.734-1.527-1.23-.211-.227-.383-.484-.594-.71-.086-.09-.047-.177.015-.267.168-.238.418-.296.747-.085.66.417 1.386.699 2.078 1.054.886.453 1.668 1.078 2.558 1.52.324.16.602.425.938.543.297.101.613.195.863.367.516.348 1.11.508 1.672.73 1.05.407 2.144.68 3.238.957 1.29.325 2.594.344 3.895.407 1.12.05 2.25.004 3.37-.059a34.567 34.567 0 0 0 3.856-.445c.727-.121 1.453-.235 2.176-.39 1.27-.27 2.477-.727 3.707-1.11.754-.239 1.461-.617 2.219-.86.219-.07.406-.226.64-.265.07-.012.09-.09.067-.164a3.38 3.38 0 0 0 1.094-.27c1.254-.539 2.543-.976 3.808-1.476 1.344-.528 2.735-.907 4.078-1.434.512-.203 1.082-.285 1.63-.379.171-.031.308-.105.53-.172a3.506 3.506 0 0 0-1.195-.187c-1.11-.004-2.21-.063-3.316-.118-.863-.039-1.727-.062-2.59-.105-.844-.043-1.695-.016-2.535-.098-1.32-.132-2.653-.14-3.957-.34-.77-.117-1.551-.093-2.313-.285-.476-.12-.984-.125-1.472-.23-.946-.211-1.895-.43-2.836-.656-.258-.063-.512-.133-.77-.2a12.667 12.667 0 0 1-1.605-.484c-.582-.223-1.192-.387-1.766-.633a35.983 35.983 0 0 0-2.144-.851c-1.274-.45-2.458-1.121-3.735-1.567-.668-.234-1.273-.605-1.914-.902-.25-.117-.508-.227-.754-.36a123.385 123.385 0 0 0-3.285-1.671c-.227-.11-.375-.309-.578-.446-.418-.289-.918-.422-1.3-.746-.364-.308-.837-.41-1.208-.683-.539-.395-1.156-.664-1.687-1.075-.254-.199-.559-.355-.844-.515a25.198 25.198 0 0 1-2.41-1.567c-.309-.226-.664-.375-.95-.64-.132-.121-.285-.215-.41-.352-.3-.336-.746-.476-1.105-.73-.664-.477-1.453-.75-2.09-1.285-.356-.297-.8-.446-1.18-.72-.492-.362-1.082-.6-1.527-1.007-.344-.309-.738-.488-1.11-.73-.37-.239-.73-.5-1.093-.754a162.046 162.046 0 0 1-3.442-2.457c-.699-.516-1.402-1.047-2.18-1.473a7.647 7.647 0 0 1-1.433-.992c-.281-.25-.594-.461-.89-.7-.188-.152-.422-.16-.645-.21.02-.141-.07-.23-.18-.266-.297-.102-.5-.332-.734-.512a7.034 7.034 0 0 0-.45-.308c-.558-.352-1.132-.7-1.644-1.11-.504-.406-1.094-.675-1.574-1.109-.082-.074-.215-.09-.316-.14-.106-.051-.215-.098-.301-.173-.535-.46-1.098-.89-1.684-1.28-.363-.24-.644-.567-.984-.821-.453-.344-.93-.656-1.301-1.094a.538.538 0 0 0-.156-.125c-.414-.226-.742-.57-1.098-.87-.36-.306-.656-.673-1.031-.974-.656-.53-1.14-1.254-1.817-1.773-.027-.02-.039-.059-.058-.082-.262-.27-.38-.688-.809-.79-.027-.007-.058-.038-.074-.066-.203-.355-.55-.57-.852-.832-.132-.113-.25-.238-.3-.39-.106-.332-.364-.528-.59-.75-.106-.106-.254-.188-.32-.313-.227-.422-.684-.668-.848-1.129-.024-.062-.086-.093-.149-.125-.468-.238-.691-.683-.91-1.125-.035-.074-.054-.175-.133-.199-.386-.105-.539-.406-.644-.754a.45.45 0 0 0-.156-.187c-.508-.36-.762-.938-1.188-1.36-.215-.214-.27-.566-.488-.71a1.927 1.927 0 0 1-.574-.563c-.313-.492-.746-.883-1.102-1.34-.18-.234-.316-.508-.555-.719-.41-.351-.742-.797-1.078-1.222-.113-.14-.21-.297-.347-.426-.508-.477-.91-1.043-1.371-1.566-.122-.137-.118-.336-.168-.508-.047-.149-.325-.078-.434-.266-.188-.312-.469-.555-.691-.836-.164-.203-.407-.37-.457-.637-.043-.218-.188-.347-.317-.476-.344-.328-.406-.524-.254-.977l.36.153c.28.125.683.07.73.53.004.044.145.067.207.118.23.188.563.234.742.484.375.508.852.922 1.254 1.407.184.218.336.496.653.59.062.015.105.12.144.191.149.266.356.477.59.668.18.148.394.281.512.473.359.578.918.972 1.289 1.546.37.579.87 1.07 1.316 1.606.645.777 1.29 1.559 1.938 2.336.39.469.746.965 1.129 1.437.28.348.582.68.859 1.024.402.5.867.957 1.25 1.472.398.536.902.97 1.336 1.47.328.382.52.917 1.082 1.073.039.012.066.07.094.11.183.297.468.492.699.746.39.434.844.82 1.215 1.262.457.539 1.03.933 1.511 1.437.434.457.95.86 1.473 1.242.625.47 1.207 1.012 1.824 1.504.864.688 1.864 1.184 2.653 1.973.152.156.308.351.504.453.609.316 1.203.652 1.765 1.047.457.324.945.61 1.418.91.598.598 1.344.992 2.008 1.5.336.262.707.465 1.023.75.164.145.395.219.586.332.414.25.688.742 1.243.77.046.004.101.078.14.129.258.359.633.597.996.808.399.234.703.61 1.102.797.476.227.793.629 1.222.902.247.153.536.297.735.551.129.16.379.14.539.309.183.183.43.3.594.52.058.073.16.116.273.1.016-.12 0-.245-.129-.28-.183-.047-.254-.188-.355-.32-.18-.231-.414-.419-.602-.634-.691-.78-1.55-1.39-2.21-2.195-.278-.336-.571-.664-.798-1.035-.082-.129-.101-.262-.277-.277-.207-.016-.078-.211-.145-.282-.226-.234-.402-.507-.636-.742-.317-.312-.653-.633-.903-1.02-.355-.554-.668-1.156-1.113-1.628-.312-.332-.508-.742-.836-1.04-.312-.285-.414-.675-.637-1.003-.359-.528-.746-1.04-1.101-1.57-.047-.067-.137-.098-.14-.215-.009-.262-.173-.461-.34-.63a.693.693 0 0 1-.188-.331c-.047-.18-.055-.395-.313-.438-.039-.004-.07-.105-.086-.168-.101-.469-.394-.86-.652-1.226-.336-.485-.516-1.051-.887-1.52-.168-.215-.293-.488-.437-.738-.043-.078-.066-.156-.004-.23.11-.13-.008-.114-.074-.18-.184-.172-.403-.383-.422-.633-.04-.477-.406-.77-.566-1.176-.07-.18-.192-.332-.223-.539-.07-.527-.356-.98-.578-1.441-.121-.25-.024-.575-.293-.75-.125-.594-.375-1.141-.653-1.676-.039-.078-.007-.164-.023-.235-.055-.25-.11-.488-.262-.722-.207-.313-.41-.664-.316-1.082.012-.047.008-.133-.016-.14-.308-.138-.262-.415-.273-.673a.732.732 0 0 0-.121-.316c-.29-.438-.383-.953-.559-1.434a8.317 8.317 0 0 1-.441-1.578c-.118-.734-.426-1.41-.524-2.14-.043-.297-.246-.563-.433-.797a7.2 7.2 0 0 1-.739-1.141c-.023-.043-.039-.113-.07-.125-.289-.094-.348-.363-.488-.578-.113-.168-.274-.309-.395-.488a13.638 13.638 0 0 0-1.23-1.614c-.34-.375-.649-.777-.957-1.18-.512-.671-.93-1.402-1.57-1.976-.376-.34-.692-.762-.981-1.184-.152-.218-.344-.343-.55-.48.05-.297-.329-.438-.27-.742-.418-.281-.637-.73-.942-1.106a18.405 18.405 0 0 1-.953-1.312c-.289-.418-.492-.895-.766-1.317-.546-.843-1.128-1.664-1.617-2.55-.132-.243-.199-.516-.367-.746-.367-.493-.625-1.047-.894-1.59-.133-.27-.18-.59-.477-.754-.059-.035-.082-.106-.07-.176.039-.195-.082-.3-.2-.426-.101-.11-.19-.238-.136-.406.023-.063.043-.133-.04-.164-.35-.14-.296-.531-.472-.785-.226-.324-.36-.735-.543-1.078-.226-.426-.492-.832-.691-1.282-.223-.511-.383-1.046-.637-1.55-.133-.266-.3-.508-.418-.782-.406-.945-.848-1.875-1.2-2.84-.081-.222-.28-.316-.335-.57-.188-.89-.758-1.656-.871-2.574-.004-.031-.028-.063-.051-.086-.43-.422-.492-1.02-.652-1.543-.13-.422-.5-.812-.332-1.316.011-.035-.063-.11-.102-.16-.434-.61-.445-1.368-.715-2.036-.07-.175-.144-.449-.097-.605.085-.309-.184-.387-.25-.586-.176-.531-.336-1.066-.415-1.617-.097-.715-.375-1.403-.355-2.137a.244.244 0 0 0-.05-.137c-.169-.222-.134-.464-.102-.714.035-.29.12-.614-.004-.872-.13-.273-.016-.492.058-.699.11-.308.45-.328.621-.047.204.344-.015.785.239 1.125-.266.254-.063.422.093.621.075.102.086.25.118.38.125.523.21 1.062.382 1.57.22.648.458 1.304.602 1.96.2.876.629 1.665.816 2.536.043.199.067.449.204.64.27.38.277.86.503 1.266.149.273.333.566.403.89.172.801.539 1.528.844 2.278.125.305.125.687.457.902.054.035.086.16.07.23-.05.231.094.384.195.548.07.117.145.226.184.351.21.746.664 1.375.972 2.078.27.61.583 1.211.887 1.813.125.25.153.554.309.754.488.601.64 1.363 1.035 2.008.375.613.64 1.296.937 1.957.133.296.344.543.473.851.113.27.336.531.5.813.55.957 1.113 1.906 1.64 2.879.192.359.364.73.626 1.062.351.45.675.93.945 1.434.344.64.836 1.18 1.16 1.832.074.148.235.34.485.285.312.738.851 1.316 1.343 1.933.485.606 1.012 1.18 1.438 1.832.078.122.203.22.316.313.145.113.29.219.32.418.024.144.141.254.243.3.32.16.465.466.648.727.453.653 1.004 1.23 1.38 1.938.034.07.155.101.276.172-.03-.375-.074-.707-.105-1.032-.043-.535-.094-1.078-.14-1.617-.071-.797.034-1.597-.036-2.394a.359.359 0 0 1 .016-.145c.074-.2.156-.394-.031-.582.195-.402-.168-.812.015-1.242.063-.137.012-.399-.015-.602-.032-.254.07-.492.007-.761-.058-.25-.113-.555 0-.828.114-.262.094-.56.102-.82.012-.419.113-.868-.098-1.282.047-.012.133-.024.133-.031-.012-.285.176-.524.211-.774.082-.597.078-1.203.188-1.812.12-.645.125-1.313.332-1.953.074-.235.25-.493.226-.684-.055-.531.41-.934.29-1.457.265-.297.202-.703.347-1.05.222-.555.36-1.145.597-1.708.329-.793.641-1.594 1.055-2.351.16-.297.18-.649.352-.922.308-.492.566-1.004.86-1.5.503-.844.933-1.73 1.51-2.543.427-.598.7-1.301 1.122-1.918.281-.41.617-.778.851-1.223.118-.226.192-.52.426-.66.281-.164.395-.441.531-.695.114-.211.239-.399.395-.57.625-.704 1.14-1.497 1.723-2.235.21-.27.406-.547.664-.781.148-.13.25-.309.375-.465.16-.203.304-.422.484-.606.285-.293.649-.53.887-.859.254-.351.7-.422.941-.766.04-.054.106-.082.176-.054.086.035.117.113.117.199 0 .113-.058.2-.137.258-.21.16-.363.37-.535.566-.359.406-.691.828-.964 1.293-.051.086-.075.184-.157.25-.554.461-.855 1.125-1.328 1.656-.176.204-.312.465-.496.68-.336.395-.52.914-.863 1.262-.469.48-.73 1.05-1.067 1.597-.214.348-.398.72-.644 1.047-.344.465-.672.938-.965 1.434-.156.262-.395.469-.496.738-.238.617-.547 1.2-.852 1.781-.25.477-.582.922-.773 1.43-.281.738-.75 1.387-1 2.145-.137.402-.379.77-.508 1.183-.156.48-.39.93-.535 1.422-.149.512-.387 1.012-.531 1.531a84.9 84.9 0 0 0-.446 1.715c-.101.387-.004.801-.214 1.156-.208.348-.075.754-.188 1.118-.027.082.082.132.145.187-.051.363-.364.668-.258 1.078.023.098-.04.188-.114.262-.082.074-.082.168-.062.273.101.465-.004.926-.086 1.368-.082.433-.063.863-.11 1.289-.07.605.09 1.226-.136 1.824-.02.047-.043.105-.027.14.285.544.062 1.122.132 1.676.055.41-.066.813-.039 1.2.02.257.086.53.114.808.023.25.011.496.027.742.023.414.195.801.156 1.23-.05.552.164 1.098.09 1.653-.02.145.082.25.106.38.101.624.054 1.273.32 1.874.05.117.008.32.02.484.015.254-.09.57.027.75.148.23.09.497.203.672.3.477.043 1.082.414 1.524.14.898.457 1.758.664 2.64.101.442.312.856.437 1.293.133.47.364.903.446 1.383.02.117.07.207.136.309.122.187.266.39.192.629-.035.113.043.14.074.207.16.332.434.632.305 1.05-.008.028.008.086.023.094.465.188.235.75.555 1.012.187.996.855 1.797 1.113 2.773.094.352.305.703.492 1.04.02.035.078.05.082.109.047.52.442.87.633 1.324.227.52.496 1.016.77 1.516.297.539.676 1.03.898 1.605.168.43.613.7.64 1.195.298.13.321.493.567.668.074.059.18.141.188.22.078.577.582.898.812 1.382.07.144.211.242.235.422.015.148.035.34.28.3.024-.003.071.032.075.055.094.453.477.73.695 1.106.286.484.63.941.973 1.394.344.45.785.84 1.063 1.328.23.41.597.692.843 1.086.145.239.403.45.617.668.563.578 1.149 1.133 1.622 1.797.144.203.398.36.601.543.227.207.473.39.629.664.184.328.535.477.797.715.293.266.57.55.82.852.215.265.473.484.715.707.566.52 1.156 1.015 1.7 1.558.019.02.062.02.148.047-.137-.265-.164-.515-.336-.758-.274-.375-.606-.734-.7-1.218a.68.68 0 0 0-.199-.336c-.476-.461-.554-1.164-1.023-1.625a.583.583 0 0 1-.113-.22c-.141-.394-.254-.792-.559-1.124-.148-.164-.3-.402-.266-.676.012-.09-.02-.156-.07-.226-.434-.575-.668-1.239-.82-1.934a.325.325 0 0 0-.13-.191c-.14-.114-.194-.266-.241-.43a1.825 1.825 0 0 0-.633-.973c-.074-.058-.149-.133-.149-.246.141.059.22.242.399.25.016-.062.039-.094.027-.121-.265-.86-.535-1.723-.781-2.59-.055-.195.066-.347-.047-.55-.25-.446-.351-.97-.406-1.47-.078-.683-.25-1.347-.32-2.023-.063-.605-.25-1.183-.282-1.797-.015-.3-.05-.636-.14-.937-.067-.215-.075-.422-.102-.637-.059-.527.063-1.078-.2-1.578-.015-.027-.015-.066-.019-.098-.074-.554-.062-1.117-.195-1.664-.05-.195.117-.383.05-.586-.163-.507-.245-1.015-.109-1.543.016-.062.036-.156 0-.195-.351-.394-.12-.879-.16-1.312-.023-.27.028-.579.016-.872-.016-.46-.14-.917.012-1.375a.255.255 0 0 0-.028-.19c-.215-.372-.101-.786-.07-1.153.047-.559.016-1.114.027-1.668.012-.653-.105-1.309.106-1.95.035-.109-.008-.195-.02-.292-.027-.368-.176-.739.078-1.094.043-.063-.007-.192-.02-.293-.015-.133-.058-.266-.038-.395.066-.468.097-.937.125-1.41.02-.312-.02-.629.015-.941.067-.59.2-1.168.235-1.758.031-.477.254-.918.207-1.406-.012-.106.062-.223.113-.325.121-.234.367.215.484-.082.004 0 .102.02.125.051.04.047.07.117.075.18.02.23.078.46.023.691a2.345 2.345 0 0 0-.027.93c.086.516.004 1.02.027 1.523.027.762-.223 1.52.004 2.286.07.238-.14.488-.05.734.124.352-.087.715.066 1.062-.227.368.015.747-.032 1.133-.097.793.157 1.606-.09 2.403a.194.194 0 0 0 .02.14c.203.274.106.567.09.867-.02.391-.031.79-.004 1.18.023.274-.148.582-.059.77.16.351.051.691.114 1.03.101.556.02 1.13.07 1.688.059.657.07 1.317.215 1.97.16.718.074 1.48.328 2.187a.682.682 0 0 1 .004.343c-.04.172-.012.332.008.496.156 1.06.351 2.11.46 3.172.06.563.22 1.102.282 1.66.062.586.176 1.172.336 1.739.156.547.222 1.113.383 1.66.175.613.425 1.207.496 1.852.027.21.152.324.363.214Zm0 0"/></g></g></g><g clip-path="url(#d)"><g clip-path="url(#e)"><g clip-path="url(#f)"><path fill="#efddb3" d="M210.473 219.238c-.25-.062-.336-.281-.426-.48-.418-.965-.809-1.946-1.242-2.906-.157-.348-.27-.707-.418-1.051-.008-.016 0-.04-.008-.051-.32-.34-.29-.8-.426-1.203-.144-.422-.258-.86-.39-1.281a7.47 7.47 0 0 1-.31-1.45c-.026-.257-.046-.492-.26-.664-.036-.027-.071-.097-.06-.129.184-.421-.058-.796-.113-1.191-.05-.41-.02-.824-.132-1.23-.075-.27-.047-.575-.02-.836.066-.637-.145-1.239-.121-1.875.027-.774.027-1.567-.121-2.344a.385.385 0 0 1 .043-.238c.277-.461.23-.957.172-1.45a1.223 1.223 0 0 1 .015-.492c.067-.258.028-.52.059-.77.066-.492.035-.984.078-1.476.059-.617.25-1.215.273-1.828.016-.371.168-.727.168-1.063 0-.41.184-.753.211-1.14.032-.48.157-.945.29-1.41.081-.301.152-.61.171-.918.012-.176.059-.328.117-.477.254-.637.41-1.305.551-1.976.145-.704.297-1.403.48-2.098.16-.633.329-1.281.223-1.957a.321.321 0 0 0-.125-.234c-.386.289-.668.632-.8 1.117a3.568 3.568 0 0 1-.34.758c-.278.484-.418.996-.532 1.527-.007.031-.015.066-.03.094-.415.78-.54 1.656-.84 2.476-.141.38-.223.809-.286 1.227-.02.148-.043.293-.097.433-.141.368-.165.782-.297 1.137-.188.504-.18 1.027-.274 1.527-.14.762-.363 1.528-.285 2.317.024.254-.074.46-.14.672-.141.484-.004.972-.11 1.457-.101.46-.07.949-.066 1.43.011.62-.067 1.242-.11 1.863-.007.097-.058.203-.035.293.168.714.004 1.441.07 2.156.028.312.149.621-.007.926.234.418-.067.922.222 1.328.047.062.047.129.008.183-.187.254-.082.508-.008.762.106.356.153.707.149 1.082-.008.55.215 1.067.308 1.606.145.828.485 1.609.582 2.449.032.273.286.469.328.765.02.137.079.293.083.43.007.23.097.41.226.586.29.395.371.875.531 1.324.157.45.239.926.52 1.328.117.176.191.383.289.575.078.16.02.289-.09.406-.316-.09-.41-.414-.578-.625-.543-.695-1.09-1.387-1.59-2.117-.5-.739-.887-1.54-1.371-2.29-.18-.28-.34-.581-.535-.855a2.44 2.44 0 0 1-.324-.703c-.164-.512-.414-.984-.59-1.492a9.824 9.824 0 0 0-.469-1.117 1.231 1.231 0 0 1-.11-.371c-.038-.223.036-.5-.23-.641.074-.266-.094-.492-.113-.738-.008-.086-.02-.172-.066-.23-.118-.145-.114-.266-.09-.458a1.064 1.064 0 0 0-.192-.722c-.246-.336-.23-.708-.27-1.07-.07-.665-.214-1.317-.288-1.977-.035-.278-.14-.598 0-.891.043-.086.011-.11-.063-.14-.074-.032-.16-.09-.12-.188.151-.367.01-.723-.056-1.078-.066-.34-.023-.692-.015-1.028.015-.77-.067-1.53-.043-2.296.02-.668 0-1.336.054-2.004.012-.145.223-.286-.058-.387-.043-.016-.043-.086-.008-.129.332-.426.125-.934.215-1.398.078-.403-.031-.84.187-1.223.055-.106-.02-.195-.023-.29-.008-.163-.043-.339.04-.491.093-.168.245-.325.023-.508-.024-.016 0-.094.007-.145.11-.632.13-1.3.356-1.89.273-.719.285-1.5.652-2.192.106-.207.125-.5.188-.75.129-.52.367-.996.535-1.496.137-.398.324-.777.441-1.187.188-.657.48-1.29.754-1.918.285-.664.531-1.34.883-1.973.289-.523.55-1.07.82-1.605.29-.578.696-1.075.946-1.668a.66.66 0 0 1 .214-.27c.078-.058.168-.101.196-.215.11-.457.422-.797.652-1.187.633-1.094 1.316-2.149 2.106-3.14.351-.442.648-.942 1.007-1.384.395-.484.653-1.05 1.04-1.543.386-.48.68-1.039 1.015-1.558.348-.535.621-1.121.988-1.63.348-.48.528-1.066 1-1.468.164-.137.23-.387.344-.59.41-.73.938-1.383 1.418-2.07.355-.508.773-.914 1.242-1.293.207-.164.457-.059.512.21.008.048.05.095.047.142-.031.238-.07.476-.11.714.344.153.067.426.09.63.055.511.012 1.034.016 1.55.012.734.137 1.453.156 2.184.008.304.07.593.14.89.106.442.204.895.216 1.344.011.512.09 1.012.187 1.504.156.773.191 1.566.379 2.324.164.653.102 1.348.383 1.973.02.043.043.12-.004.129-.32.058-.098.148-.05.285.151.457.144.941.19 1.418.016.152-.14.308.083.457.078.055-.082.262.015.441.106.188.149.45.117.664-.039.235-.011.442.055.66.02.075.043.153-.023.235-.149.187-.18.375.039.539.02.016.023.07.007.098-.16.293.036.547.098.812.078.313-.02.613 0 .918.05.824.106 1.649.102 2.477-.004.484-.078.972-.114 1.457-.039.53-.171 1.058-.101 1.601.039.328-.016.688-.106 1.008-.078.27-.105.543-.086.805.024.27.016.543-.062.781-.223.695-.188 1.422-.29 2.129-.007.066.009.137-.019.195-.246.551-.195 1.156-.343 1.73-.13.505-.317.997-.395 1.52a2.204 2.204 0 0 1-.418 1.024c-.11.144.02.277-.05.422-.266.574-.465 1.175-.723 1.753-.25.559-.457 1.157-.723 1.704-.187.386-.293.793-.492 1.168-.2.375-.309.785-.457 1.18-.149.394-.41.745-.637 1.105a3.507 3.507 0 0 0-.305.59c-.046.128.036.332-.16.425-.129.063-.187.207-.258.348-.48.965-.902 1.957-1.332 2.95-.218.51-.527.987-.738 1.507-.203.496-.562.938-.691 1.434-.11.43-.496.75-.426 1.226.023.156-.176.149-.219.297a66.166 66.166 0 0 1-.515 1.773c-.188.61-.356 1.211-.489 1.836a9.859 9.859 0 0 0-.21 1.653c-.008.195-.22.336-.087.566.098.172-.093.422-.035.563.188.43.012.847.067 1.265Zm0 0"/></g></g></g><g clip-path="url(#g)"><g clip-path="url(#h)"><g clip-path="url(#i)"><path fill="#efddb3" d="M221.559 240.227c.02.074.004.148-.067.164-.234.039-.422.195-.64.261-.758.246-1.465.625-2.22.864-1.23.382-2.437.84-3.706 1.109-.723.156-1.453.27-2.176.39a34.559 34.559 0 0 1-3.855.442c-1.122.066-2.25.113-3.372.063-1.304-.063-2.609-.083-3.894-.407-1.098-.277-2.188-.547-3.238-.957-.567-.219-1.157-.383-1.676-.73-.246-.172-.563-.262-.86-.367-.335-.118-.613-.383-.937-.543-.89-.446-1.672-1.07-2.559-1.52-.691-.355-1.418-.637-2.082-1.055-.328-.21-.578-.152-.742.086-.062.09-.097.18-.02.266.212.227.383.484.598.71.453.497 1.04.798 1.524 1.231.226.203.472.364.746.489.644.297 1.226.703 1.812 1.097.043.024.094.04.14.055.888.3 1.65.914 2.602 1.059.032.007.067.015.094.03.617.407 1.34.528 2.024.766 1.129.391 2.304.458 3.468.625.985.145 1.985.118 2.977.149 1.219.043 2.418-.145 3.625-.215a37.895 37.895 0 0 0 3.258-.348c.605-.09 1.203-.23 1.804-.351 1.63-.32 3.196-.848 4.75-1.406 1.094-.395 2.168-.84 3.25-1.266.708-.277 1.415-.563 2.122-.848.07-.027.129 0 .191.032-.188.449-.598.722-.973.945-.613.367-1.109.883-1.722 1.246-.606.355-1.2.742-1.817 1.082-.402.223-.754.531-1.168.742-1.007.524-1.898 1.238-2.937 1.719-.281.133-.563.34-.809.55-.504.442-1.191.587-1.652 1.09-.05.051-.152.055-.227.087-.261.109-.504.23-.722.425-.22.2-.47.371-.758.469-.367.121-.68.352-.996.547a13.96 13.96 0 0 1-1.809.941c-1.336.567-2.668 1.157-4.125 1.403-.691.117-1.383.144-2.07.172-.594.027-1.211-.06-1.817-.13a38.521 38.521 0 0 1-2.105-.312c-.816-.133-1.606-.394-2.406-.598a16.939 16.939 0 0 1-1.852-.578c-.55-.21-1.07-.5-1.601-.761-.516-.258-1.02-.536-1.543-.774-.188-.086-.297-.254-.47-.36-.66-.394-1.296-.823-1.937-1.245-.132-.09-.293-.176-.336-.352-.015-.055-.039-.117-.078-.11-.449.071-.535-.421-.867-.546-.328-.129-.523-.445-.789-.656a22.54 22.54 0 0 1-1.117-.903c-.211-.187-.453-.328-.594-.593a.533.533 0 0 0-.289-.25c-.238-.075-.328-.282-.488-.43-.14-.133-.36-.2-.52-.352-.383-.355-.758-.722-1.172-1.035-.355-.262-.714-.523-1.03-.824-.528-.504-1.18-.863-1.677-1.402-.023-.024-.05-.04-.082-.059-.613-.371-1.12-.887-1.726-1.262-.41-.25-.774-.547-1.137-.855-.582-.5-1.18-.992-1.867-1.348-.031-.02-.063-.031-.086-.05-.57-.551-1.285-.848-2.008-1.126a.17.17 0 0 1-.047-.02c-.265-.316-.64-.437-1.008-.507-.039-.133.043-.137.094-.164 1.75-.906 3.531-1.75 5.39-2.41.45-.16.927-.254 1.391-.387.715-.203 1.454-.3 2.192-.398.969-.13 1.937-.098 2.906-.118.66-.015 1.316.043 1.965.055.726.02 1.492.028 2.187.313.204.082.387.027.582.07.813.191 1.653.305 2.45.55.504.157 1.007.376 1.511.524.618.184 1.16.574 1.813.63.05.003.125.003.144.034.274.403.825.317 1.141.649a.477.477 0 0 0 .176.093c.941.29 1.758.86 2.648 1.258.832.375 1.649.79 2.45 1.215.957.504 1.953.934 2.921 1.402.684.329 1.371.68 2.125.875.414.106.805.332 1.22.45.968.277 1.948.523 2.921.78.285.079.574.157.855.243.059.016.102.066.18.047.484-.106.942.09 1.406.152.79.106 1.57.227 2.352.352.113.02.2 0 .277-.059.07-.054.149-.093.223-.043.371.262.781.137 1.18.168.359.032.714.028 1.07.035 1.098.036 2.187-.03 3.273-.14.149-.016.301-.02.45-.031Zm0 0"/></g></g></g><g clip-path="url(#j)"><g clip-path="url(#k)"><g clip-path="url(#l)"><path fill="#efddb3" d="M156.48 172.523c-.25.051-.406-.136-.484-.289-.324-.648-.816-1.187-1.16-1.828a9.67 9.67 0 0 0-.945-1.433c-.262-.332-.434-.703-.625-1.063-.528-.972-1.09-1.922-1.641-2.879-.164-.281-.387-.543-.5-.812-.129-.309-.34-.555-.473-.852-.293-.66-.562-1.344-.937-1.957-.395-.648-.547-1.406-1.035-2.012-.157-.195-.184-.503-.309-.75-.305-.601-.621-1.203-.887-1.816-.308-.7-.761-1.332-.972-2.074-.035-.13-.114-.238-.184-.352-.101-.168-.246-.32-.195-.547.015-.07-.016-.199-.07-.23-.333-.211-.333-.594-.458-.906-.304-.746-.671-1.477-.843-2.274-.075-.324-.25-.617-.403-.89-.226-.41-.234-.891-.504-1.27-.136-.187-.16-.437-.203-.64-.187-.872-.617-1.657-.812-2.532-.149-.656-.387-1.312-.606-1.96-.172-.512-.257-1.048-.382-1.571-.032-.129-.043-.281-.118-.379-.156-.2-.359-.371-.093-.625-.254-.336-.036-.781-.239-1.121-.172-.281-.511-.266-.62.047-.075.207-.188.422-.055.699.12.258.035.578 0 .867-.032.25-.067.496.101.715.027.04.05.094.05.14-.023.735.255 1.423.356 2.137.078.551.239 1.086.414 1.618.067.195.336.277.25.586-.046.156.028.43.098.601.27.672.281 1.43.715 2.035.039.055.117.125.101.164-.167.508.204.895.333 1.313.16.523.222 1.125.652 1.547a.14.14 0 0 1 .05.082c.118.922.688 1.687.872 2.578.054.25.258.347.336.57.351.965.797 1.895 1.199 2.84.117.27.285.516.418.781.254.5.414 1.035.637 1.551.195.445.464.856.691 1.277.188.348.316.758.543 1.078.18.254.121.649.473.786.082.035.062.101.043.168-.059.164.03.297.132.406.118.121.239.23.2.426-.012.07.011.14.07.172.3.167.344.484.476.753.27.547.528 1.102.895 1.594.172.227.234.5.371.746.484.887 1.067 1.707 1.613 2.551.274.422.477.899.766 1.316.305.446.61.891.953 1.313.305.375.524.824.942 1.105-.059.301.32.442.27.743a23.258 23.258 0 0 1-3.438-2.036c-.5-.359-1.024-.703-1.57-1.011a5.19 5.19 0 0 1-.91-.649c-.224-.199-.505-.386-.759-.562-.34-.238-.726-.461-.968-.824-.016-.024-.028-.063-.051-.075-.664-.343-1.196-.867-1.758-1.343a17.3 17.3 0 0 1-1.383-1.293c-.531-.563-1.074-1.118-1.558-1.715-.235-.285-.582-.504-.665-.91-.019-.094-.183-.102-.261-.2-.356-.457-.735-.894-1.051-1.386-.234-.371-.426-.785-.703-1.11-.356-.41-.574-.879-.817-1.343-.035-.07-.039-.153-.125-.204-.21-.12-.32-.347-.367-.554-.105-.465-.449-.793-.636-1.207-.13-.293-.344-.551-.286-.903-.363-.418-.328-.98-.511-1.464a8.234 8.234 0 0 1-.34-1.239c-.145-.648-.242-1.308-.387-1.957-.05-.23-.125-.445-.098-.68a.182.182 0 0 0-.035-.136c-.187-.2-.152-.434-.16-.676a4.895 4.895 0 0 0-.117-.816c-.113-.543-.129-1.106-.2-1.657-.073-.578-.077-1.168-.183-1.75-.055-.293-.137-.632.012-.953.047-.093.031-.238-.004-.34-.133-.37.012-.738.016-1.101.007-.395-.051-.797.02-1.2.019-.12.01-.238.07-.367.09-.195.257-.402.054-.636-.043-.047 0-.121.02-.188.132-.39.125-.797.148-1.203.02-.34.043-.683.16-1.02.13-.367.223-.75.223-1.152 0-.445.07-.883.226-1.308.122-.336.141-.707.204-1.059.105-.574.199-1.148.375-1.715.14-.457.183-.949.289-1.422.054-.254.168-.5.222-.75.121-.543.34-1.054.414-1.609.047-.328.262-.621.371-.95.227-.687.528-1.35.86-1.991.07-.137.117-.286.265-.348a.348.348 0 0 0 .211-.317c.02-.546.43-.722.825-.859.664-.226.668-.2.71.496.024.387.016.75-.152 1.13-.152.355-.066.769-.09 1.16-.02.32-.039.644-.035.956.012.403-.176.875.23 1.215.036.031.032.125.028.188-.043.445.078.851.332 1.21.254.364.399.79.508 1.188.133.473.43.824.637 1.23.265.524.57 1.051.93 1.5.382.477.69 1 1.073 1.477.333.402.528.926.875 1.309.415.46.711 1.015 1.149 1.437.418.403.742.88 1.129 1.301.62.68 1.285 1.328 1.84 2.063.558.738 1.199 1.414 1.707 2.199.394.61.812 1.215 1.207 1.828.207.312.492.601.511 1.015.004.079.083.137.141.2.086.093.195.21.203.32.043.473.38.813.504 1.238.047.16.223.317.055.504-.012.02-.004.055-.008.082.367.02.25.356.309.54.066.206.132.44.093.679-.03.207.184.285.235.48.133.461.273.899.195 1.399-.027.187.016.394.152.61.164.245.059.605.059.91-.004.468.07.94-.004 1.41-.055.316-.238.636-.148.953.082.289.047.601-.075.78-.222.325.11.747-.25 1.005.243.242-.129.465-.058.617.125.273.012.496-.047.711-.121.46-.137.914-.113 1.383.023.492-.223.949-.176 1.453.02.195.02.394.066.586.04.144.094.285.02.437-.082.172-.004.332.015.504.047.383.207.781.012 1.172.238.457.098.969.227 1.445.144.516.195 1.059.36 1.563.151.457.194.957.51 1.371.141.176.153.453.223.691Zm0 0"/></g></g></g><g clip-path="url(#m)"><g clip-path="url(#n)"><g clip-path="url(#o)"><path fill="#efddb3" d="M164.402 165.879c-.062-.05-.168-.102-.14-.188.113-.363-.02-.765.187-1.113.211-.355.113-.773.211-1.16.145-.57.293-1.145.45-1.711.14-.523.382-1.023.53-1.531.145-.496.38-.942.532-1.426.133-.41.375-.777.508-1.18.254-.757.718-1.406 1-2.148.195-.504.527-.95.777-1.43.305-.578.61-1.164.848-1.781.105-.27.343-.477.496-.738.293-.493.625-.965.969-1.43.238-.328.425-.703.644-1.05.336-.544.598-1.118 1.066-1.595.34-.347.528-.87.864-1.265.183-.211.316-.477.496-.676.472-.531.773-1.2 1.328-1.66.078-.067.105-.164.156-.25.274-.465.606-.883.961-1.29.176-.195.32-.41.54-.566a.323.323 0 0 0 .136-.257c0-.09-.031-.164-.121-.2-.067-.027-.133 0-.172.055-.242.34-.688.414-.941.766-.239.328-.602.562-.891.86-.18.183-.324.398-.484.6-.125.16-.227.337-.372.47-.257.23-.453.507-.664.777-.582.742-1.097 1.531-1.726 2.234a2.89 2.89 0 0 0-.39.57c-.137.258-.255.532-.536.7-.234.136-.305.433-.426.66-.234.445-.57.812-.847 1.219-.422.62-.7 1.324-1.121 1.921-.579.809-1.008 1.696-1.512 2.543-.297.493-.551 1.008-.86 1.496-.171.278-.191.63-.355.926-.414.754-.723 1.555-1.055 2.348-.234.562-.37 1.152-.597 1.71-.137.345-.078.75-.348 1.048.125.523-.34.925-.285 1.46.02.188-.156.446-.23.68-.204.641-.212 1.309-.329 1.957-.11.61-.105 1.211-.187 1.809-.035.25-.223.492-.211.773 0 .012-.086.024-.133.036-.211-.122-.297-.368-.297-.551.004-.473-.27-.856-.332-1.297-.066-.473-.21-.926-.309-1.395-.101-.457-.175-.93-.214-1.386-.036-.387-.239-.743-.168-1.137.066-.375-.114-.754-.078-1.102.039-.422-.079-.828.007-1.261.063-.328.004-.72-.011-1.082-.032-.711-.051-1.426.07-2.125.035-.207-.024-.426.062-.602.11-.223-.05-.45.004-.598.2-.546.192-1.136.383-1.68.094-.261.149-.527.176-.8.016-.168.035-.332.164-.457.09-.086.113-.195.105-.316-.011-.2-.14-.438.196-.512.062-.016.035-.082.031-.13-.031-.362.125-.675.262-.995.152-.363.277-.735.406-1.106.219-.629.527-1.215.824-1.808.207-.414.43-.836.543-1.282.063-.253.235-.378.344-.574.469-.847.898-1.719 1.465-2.508.316-.441.547-.945.93-1.34.335-.347.554-.777.874-1.14.262-.3.56-.559.833-.84.148-.152.246-.344.41-.484.609-.52 1.191-1.07 1.808-1.582.656-.551 1.305-1.114 1.98-1.633.802-.613 1.66-1.152 2.505-1.703 1.09-.715 2.27-1.29 3.308-2.082.34-.262.664-.551.969-.84.32-.309.687-.566.988-.89.43-.458.93-.837 1.29-1.36.179-.254.413-.473.652-.676.32-.27.511-.664.8-.93.477-.441.739-1.054 1.27-1.433.117-.086.195-.219.277-.344.18-.27.489-.328.746-.453.192-.094.485.242.477.48-.004.293-.168.543-.285.782-.153.304-.184.62-.246.93-.04.202-.047.413-.117.613-.079.218-.172.457-.157.675.024.262-.18.442-.187.633-.004.34-.063.668-.098 1.004-.043.438-.14.86-.21 1.29-.09.515-.25 1.015-.298 1.538-.007.125.149.438-.191.469.059.2.101.39.02.602-.07.18-.133.37-.157.566-.078.676-.344 1.309-.445 1.96-.09.595-.438 1.106-.426 1.712-.277.348-.156.863-.504 1.18-.023.02-.058.05-.058.078-.016.816-.493 1.492-.657 2.265-.09.422-.304.82-.507 1.211-.122.227-.239.461-.325.711-.203.586-.457 1.153-.703 1.723-.355.812-.855 1.555-1.215 2.367-.148.336-.347.672-.675.898-.102.07-.227.157-.18.364.043.183-.14.336-.266.453-.097.101-.265.219-.3.305-.204.484-.586.828-.88 1.238-.328.465-.624.965-1.003 1.383-.543.59-1 1.25-1.54 1.84-.312.34-.667.625-.96.984-.371.46-.813.86-1.207 1.293-.266.289-.649.465-.817.86-.035.081-.183.14-.293.167-.14.031-.21.13-.222.235-.032.222-.172.332-.344.43-.367.206-.621.546-.922.827-.254.235-.516.465-.773.7-.782.703-1.622 1.347-2.36 2.097-.652.66-1.281 1.356-1.754 2.168-.07.047-.11.102-.078.188a.412.412 0 0 1-.176.242Zm0 0"/></g></g></g><g clip-path="url(#p)"><g clip-path="url(#q)"><g clip-path="url(#r)"><path fill="#efddb3" d="M183.207 156.117c-.309.137-.644.27-.883.535-.394.442-.652.977-.98 1.461-.227.332-.356.735-.504 1.114-.149.37-.477.632-.594 1.027-.086.277-.32.52-.406.777-.13.399-.371.735-.5 1.14-.113.364-.344.72-.512 1.083-.27.598-.516 1.21-.777 1.812-.348.793-.68 1.594-.973 2.41-.055.149-.066.297-.183.442-.106.129-.114.36-.165.539-.109.367-.375.691-.351 1.098 0 .05.02.09-.024.132-.25.227-.25.57-.351.856-.219.625-.356 1.277-.598 1.898-.16.403-.187.856-.406 1.243a.217.217 0 0 0-.023.14c.082.336-.356.59-.149.95.012.015-.047.078-.082.117-.195.207-.25.488-.25.738-.008.605-.422 1.148-.238 1.773.023.067-.02.125-.067.18-.16.191-.16.418-.171.652-.012.301-.02.625-.141.891-.082.188.055.36-.05.508-.216.297-.2.625-.165.96.008.083.043.165-.004.243-.176.312-.12.668-.195.996-.078.328-.067.664-.086.988-.035.555-.055 1.114-.11 1.664-.027.301.086.578.016.883-.097.418-.066.852-.023 1.285.062.59-.024 1.184.078 1.79.055.324.105.683.086 1.042-.035.602.101 1.211.152 1.82.012.126.059.247.074.352.09.676.13 1.352.313 2.02.101.37.101.77.152 1.156.035.27.09.531.125.797.035.262.043.527.113.785.07.27.09.55.145.824.05.235.285.434.148.715.223.942.461 1.879.762 2.8.18.556.512 1.04.707 1.599.121.355.356.699.563 1.035.105.168.32.226.355.496.028.187.207.379.324.562.282.438.434.946.825 1.328.109.106.304.254.324.383.086.551.582.79.863 1.184.399.555.93 1.012 1.402 1.512.145.062.22.246.403.25.015-.059.035-.094.027-.118-.266-.859-.539-1.722-.781-2.593-.055-.192.066-.348-.047-.547-.254-.45-.352-.969-.41-1.469-.074-.684-.25-1.348-.32-2.027-.063-.602-.247-1.18-.278-1.793-.02-.301-.05-.637-.144-.938-.067-.215-.075-.426-.098-.637-.059-.527.059-1.078-.203-1.578-.012-.03-.012-.066-.016-.101-.074-.551-.062-1.113-.199-1.66-.047-.196.117-.387.055-.586-.164-.508-.246-1.016-.11-1.547.016-.059.036-.156 0-.192-.351-.398-.12-.882-.16-1.312-.023-.27.028-.582.016-.875-.016-.457-.14-.914.012-1.375a.245.245 0 0 0-.028-.188c-.215-.375-.101-.789-.074-1.156.05-.558.02-1.11.031-1.668.012-.652-.105-1.308.106-1.949.035-.106-.012-.195-.02-.293-.027-.367-.176-.738.078-1.094.043-.062-.008-.191-.02-.293-.015-.129-.058-.265-.038-.39.066-.47.097-.942.125-1.41.015-.317-.02-.633.015-.946.067-.586.2-1.168.235-1.758.03-.476.254-.918.207-1.406-.012-.101.062-.219.113-.324.121-.234.363.215.484-.078.004-.004.102.015.125.047.04.05.07.117.075.18.02.23.074.46.023.695a2.343 2.343 0 0 0-.027.93c.086.515.004 1.015.027 1.519.027.762-.223 1.52.004 2.285.07.238-.14.488-.05.734.124.352-.09.72.066 1.063-.227.367.015.75-.032 1.133-.097.793.157 1.61-.09 2.402a.194.194 0 0 0 .02.14c.203.274.105.571.09.868a9.97 9.97 0 0 0-.004 1.183c.023.27-.149.579-.059.77.16.348.047.691.114 1.031.101.555.02 1.125.07 1.684.059.656.07 1.316.215 1.969.156.722.074 1.48.328 2.187a.698.698 0 0 1 .004.348c-.04.168-.012.332.008.496.156 1.055.347 2.11.46 3.172.06.558.22 1.097.282 1.656.062.59.176 1.176.336 1.738.156.551.222 1.114.383 1.664.175.61.425 1.203.496 1.848.023.187.148.3.359.191.098-.351.414-.629.371-1.03.434-.919.66-1.903.95-2.872.074-.262.015-.586.163-.77.309-.375.235-.875.508-1.242.176-.234.13-.543.23-.804a59.85 59.85 0 0 0 .598-1.586c.211-.59.348-1.211.645-1.77a.374.374 0 0 0 .047-.14c.05-.567.168-1.118.46-1.606.094-.16-.117-.285.005-.398.254-.239.273-.598.328-.88.129-.624.285-1.234.508-1.835.093-.258.226-.528.253-.793.04-.403.211-.758.29-1.145.109-.543.316-1.078.328-1.62.015-.72.379-1.376.3-2.098.204-.235.118-.54.2-.801.109-.348.02-.715.082-1.074.035-.235-.04-.54-.07-.81-.024-.187.14-.288.081-.491-.101-.344-.136-.719-.172-1.063-.039-.398-.082-.804-.109-1.21-.02-.286-.027-.571-.043-.86-.031-.316-.078-.629-.094-.945-.011-.227-.199-.395-.187-.621l-.047-.13c.031-.035.031-.074 0-.113.074-.422-.152-.797-.191-1.199-.008-.094-.141-.164-.04-.293.106-.129-.074-.172-.109-.258.223-.199-.172-.203-.12-.39.085-.313-.298-.59-.11-.938.027-.05-.07-.097-.125-.137-.075-.054-.07-.12-.078-.21-.051-.622-.227-1.215-.36-1.82-.156-.704-.617-1.325-.586-2.087.004-.074-.05-.156-.09-.23-.355-.61-.457-1.313-.714-1.957-.25-.633-.454-1.278-.711-1.903-.047-.117-.043-.222-.047-.324.004-.133-.028-.254-.04-.375-.042-.367-.327-.652-.335-1-.024-.68-.317-1.297-.41-1.96-.067-.477-.141-1.005-.407-1.454a.96.96 0 0 1-.125-.62c.051-.368-.117-.704-.125-1.063-.007-.36-.214-.739-.18-1.051.055-.442-.25-.848-.034-1.281.054-.11-.122-.258-.032-.422.114-.215.043-.45.04-.68-.016-.535-.133-1.094.156-1.594.093-.164.144-.312 0-.449-.168-.156-.395-.309-.602-.215Zm4.867 22.215c-.035-.016-.027-.059.004-.082.059-.04.113-.031.16.023-.02.118-.097.086-.164.059Zm0 0"/></g></g></g><g clip-path="url(#s)"><g clip-path="url(#t)"><g clip-path="url(#u)"><path fill="#efddb3" d="M160.707 190.945c-.277-.273-.441-.629-.684-.933a94.831 94.831 0 0 0-2.101-2.586c-.242-.29-.477-.59-.738-.867-.121-.13-.305-.137-.395-.29-.363-.597-.91-1.03-1.426-1.476-.648-.559-1.215-1.203-1.945-1.672-.64-.41-1.168-.976-1.824-1.379-.266-.164-.574-.265-.809-.453-1.234-.98-2.738-1.496-4.05-2.34-.786-.219-1.434-.722-2.176-1.035-.336-.137-.653-.324-.985-.48-.433-.204-.793-.57-1.312-.598-.059-.004-.117-.055-.176-.09-.805-.437-1.613-.875-2.414-1.32-.649-.36-1.297-.715-1.902-1.149-.887-.636-1.52-1.539-2.32-2.27a.165.165 0 0 1-.063-.073c-.235-.461-.66-.54-1.102-.473-.594.086-.8.547-.555 1.121.051.117.086.246.098.383.02.258.008.555.129.77.145.261-.02.535.14.78.098.15-.042.352.051.528.207.39.309.82.426 1.246.07.246.172.492.313.707.12.184.164.395.164.574.004.313.09.59.219.848.171.34.222.734.488 1.031.05.059.183.168.117.246-.164.196.02.336.082.43.25.379.293.852.555 1.215.16.226.105.52.258.742.261.434.437.902.617 1.371.035.094.02.195.16.188.07.257.246.5.305.73.132.55.527.969.656 1.508.008.031.027.074.05.082.282.113.274.39.36.613.027.078.02.184.07.238.25.29.348.668.563.981.207.305.445.602.55.969.126.433.47.742.688 1.12.25.427.465.884.781 1.282.211.27.5.524.625.809.235.53.668.925.895 1.449.05.125.07.285.164.36.238.206.36.503.598.702.226.192.117.653.543.688.011.344.312.488.484.723.168.226.394.406.512.671.12.27.472.27.605.563.059.133.313.176.27.422-.008.054.047.11.105.152.453.328.813.766 1.16 1.184.582.699 1.281 1.265 1.934 1.883.168.16.34.316.523.453.164.12.477.086.485.347.007.32.441.168.437.457.582.356 1.055.86 1.613 1.235.676.453 1.356.91 2.051 1.332.285.172.574.379.828.57.266.207.692.215.817.598.719.437 1.422.91 2.168 1.308.566.301 1.133.614 1.718.88.598.273 1.192.558 1.813.777.707.246 1.414.5 2.14.699.739.199 1.477.383 2.215.558.57.141 1.153.227 1.727.356.64.144 1.281.312 1.945.312.172 0 .325.047.489.07.015-.14-.07-.226-.184-.265-.293-.098-.496-.328-.734-.508a6.079 6.079 0 0 0-.45-.308c-.558-.352-1.129-.7-1.64-1.114-.504-.402-1.098-.672-1.578-1.105-.082-.074-.211-.09-.317-.14-.101-.055-.215-.098-.3-.173a16.204 16.204 0 0 0-1.684-1.28c-.36-.24-.645-.567-.984-.825-.454-.34-.93-.652-1.301-1.094a.65.65 0 0 0-.153-.12c-.418-.227-.746-.571-1.101-.872-.356-.305-.656-.672-1.028-.973-.66-.53-1.144-1.254-1.82-1.773-.023-.02-.035-.059-.058-.082-.262-.27-.38-.688-.809-.79-.027-.007-.055-.038-.07-.066-.207-.355-.555-.57-.856-.832-.129-.113-.246-.238-.297-.39-.105-.332-.367-.528-.593-.75-.106-.106-.25-.188-.317-.313-.23-.422-.683-.668-.851-1.129-.024-.062-.082-.093-.145-.125-.473-.238-.695-.683-.91-1.125-.04-.074-.055-.175-.137-.199-.387-.11-.535-.406-.644-.754a.402.402 0 0 0-.157-.187c-.504-.36-.761-.938-1.183-1.36-.215-.215-.274-.566-.488-.71a1.927 1.927 0 0 1-.575-.563c-.316-.492-.75-.883-1.101-1.34-.184-.234-.317-.508-.559-.719-.41-.351-.738-.797-1.078-1.222-.113-.141-.207-.297-.344-.426-.508-.477-.914-1.047-1.375-1.567-.12-.136-.113-.34-.168-.507-.047-.149-.324-.078-.433-.266-.188-.313-.465-.555-.692-.836-.16-.207-.402-.371-.457-.64-.043-.215-.183-.344-.316-.473-.344-.332-.406-.528-.254-.98.121.05.242.1.363.156.278.125.684.07.727.53.004.044.144.063.207.114.23.188.562.238.742.484.375.512.852.926 1.254 1.407.184.222.336.5.652.59.063.02.106.125.145.191.148.27.355.477.59.668.18.152.394.285.511.476.36.575.918.97 1.29 1.543.37.579.874 1.075 1.316 1.606.644.781 1.289 1.562 1.937 2.34.391.469.746.965 1.13 1.437.28.344.581.676.859 1.024.406.5.867.953 1.25 1.468.398.536.902.97 1.336 1.473.328.379.52.918 1.082 1.074.039.012.07.067.093.11.184.293.47.492.7.742.39.434.843.82 1.214 1.266.457.535 1.032.93 1.512 1.437.434.457.95.856 1.473 1.242.629.465 1.207 1.008 1.824 1.5.863.688 1.863 1.188 2.652 1.973.153.156.309.355.504.457.61.316 1.203.652 1.766 1.047.457.32.945.605 1.418.91-.012-.215-.102-.399-.223-.574a11.319 11.319 0 0 1-.637-1.09c-.23-.445-.449-.91-.699-1.336-.375-.64-.715-1.305-1.152-1.914a6.58 6.58 0 0 1-.7-1.227c-.242-.59-.702-1.054-.874-1.672-.055-.199-.32-.226-.356-.355-.039-.16.028-.36-.097-.508-.266-.324-.399-.719-.54-1.101a7.544 7.544 0 0 0-.542-1.196c-.391-.656-.778-1.312-1.075-2.02-.058-.14-.234-.16-.273-.331-.102-.446-.332-.84-.527-1.25-.168-.38-.473-.664-.696-1.008-.054-.27-.277-.438-.414-.656-.41-.653-.77-1.348-1.328-1.903Zm0 0"/></g></g></g><g clip-path="url(#v)"><g clip-path="url(#w)"><g clip-path="url(#x)"><path fill="#efddb3" d="M164.648 165.45c-.066.046-.109.105-.078.19.055-.054.09-.113.078-.19Zm0 0"/></g></g></g><g clip-path="url(#y)"><g clip-path="url(#z)"><g clip-path="url(#A)"><path fill="#a2bdb4" d="M182.957 208.734c-.027.164.094.332-.016.485-.074.105-.015.195.028.281.355.758.558 1.57.879 2.34.156.379.312.773.55 1.125.461.672.72 1.453 1.102 2.172.191.367.473.71.55 1.14.032.168.173.282.255.426.168.27.336.543.523.8.192.267.242.622.504.845-.039.457.473.562.59.922.113.343.402.57.601.855.657.934 1.543 1.648 2.336 2.45.47.468 1.008.823 1.575 1.179.8.5 1.625.96 2.421 1.473.18.117.356.242.524.37.289.223.656.27.941.524.262.238.586.426.957.488a.64.64 0 0 1 .305.16c.457.446 1.082.606 1.594.946.656.441 1.37.773 2.078 1.101.582.27 1.164.567 1.762.813.539.226 1.156.32 1.57.797.035.043.121.043.184.05.71.106 1.324.47 1.96.758.407.184.829.332 1.243.477.27.094.554.187.816.289.82.316 1.645.648 2.48.902.543.168 1.102.32 1.653.48.992.282 2.008.473 2.996.774.414.13.855.063 1.273.176.801.211 1.633.273 2.446.328 1.02.07 2.031.207 3.054.262.883.047 1.774.023 2.653.18.3.054.617 0 .945-.082-.203-.086-.398-.188-.605-.25-.762-.223-1.48-.551-2.2-.883-.355-.16-.683-.375-1.078-.473-.344-.086-.613-.375-.949-.527a8.544 8.544 0 0 1-.383-.188 12.6 12.6 0 0 1-1.3-.781c-.458-.297-.962-.523-1.399-.86-.578-.44-1.184-.847-1.734-1.331-.375-.336-.782-.649-1.176-.973-.496-.406-.973-.844-1.344-1.375-.16-.227-.426-.32-.582-.559-.226-.343-.504-.648-.766-.968-.027-.04-.039-.11-.078-.122-.57-.21-.668-.828-1.027-1.222-.418-.465-.746-1.016-1.09-1.543-.387-.598-.726-1.235-1.133-1.824-.347-.5-.574-1.098-1.093-1.473-.141-.102-.055-.332-.235-.414.11-.117.168-.246.086-.406-.094-.192-.168-.399-.289-.57-.277-.407-.36-.88-.52-1.333-.156-.449-.238-.93-.53-1.324-.126-.176-.22-.351-.223-.586-.004-.137-.067-.293-.086-.43-.043-.296-.297-.488-.325-.765-.097-.84-.437-1.621-.582-2.45-.093-.538-.32-1.054-.312-1.605a3.616 3.616 0 0 0-.145-1.082c-.078-.25-.18-.504.004-.762.04-.054.04-.12-.004-.183-.293-.403.012-.91-.226-1.324.16-.313.039-.618.008-.93-.067-.715.097-1.441-.07-2.156-.024-.09.03-.196.038-.293.043-.621.118-1.243.11-1.86-.008-.48-.035-.972.062-1.433.106-.485-.027-.973.114-1.453.062-.215.164-.426.14-.676-.078-.79.14-1.555.281-2.317.098-.504.09-1.027.274-1.527.133-.355.16-.766.297-1.137.054-.144.078-.285.101-.433.059-.414.14-.848.282-1.227.3-.82.43-1.695.84-2.472a.286.286 0 0 0 .03-.098c.114-.531.258-1.047.536-1.527.133-.23.265-.497.336-.754.133-.489.418-.832.804-1.118.09.07.11.149.125.23.102.673-.062 1.325-.226 1.958a47.94 47.94 0 0 0-.48 2.098c-.141.671-.294 1.34-.547 1.976-.063.149-.106.3-.118.477-.02.308-.09.617-.175.918-.13.465-.258.93-.29 1.41-.023.387-.207.734-.207 1.14 0 .336-.156.692-.171 1.063-.024.617-.215 1.21-.27 1.828-.047.492-.012.984-.078 1.477-.035.25.004.511-.059.77-.043.155-.039.323-.02.491.06.496.11.989-.167 1.45a.364.364 0 0 0-.043.238c.144.773.148 1.57.121 2.344-.023.636.184 1.242.121 1.875-.027.265-.059.566.02.836.109.406.074.82.132 1.23.055.395.293.77.114 1.191-.012.032.023.102.054.13.22.175.235.406.266.663.05.493.16.989.305 1.45.132.422.25.859.394 1.28.137.403.106.864.422 1.204.008.012.004.035.008.05.152.345.262.708.418 1.052.433.96.828 1.941 1.246 2.906.086.199.172.422.422.48 0 .364.117.68.347.957.364.426.555.965.88 1.418.484.672.894 1.395 1.425 2.035.375.454.653.973 1 1.442.219.297.496.55.738.832.317.363.68.68.997 1.035.445.5.937.938 1.418 1.387.488.46.972.945 1.515 1.332.883.629 1.727 1.312 2.703 1.8.809.403 1.567.899 2.383 1.274.856.395 1.727.754 2.59 1.133.57.25 1.176.426 1.766.625.515.172 1.023.363 1.55.492.95.23 1.91.465 2.895.379.453-.04.89.062 1.34.043 1.218-.059 2.441-.074 3.664-.149 1.52-.09 3.035-.238 4.55-.332.876-.05 1.754-.082 2.626-.207.257-.035.433.13.652.192-.063.078-.129.152-.191.23-1.274.399-2.61.371-3.91.602-.696.125-1.415.176-2.13.219-.234.015-.468.039-.683.113-1.285.457-2.633.64-3.961.898-1.418.274-2.844.508-4.227.922-.652.195-1.289.442-1.937.653-1.293.417-2.559.925-3.828 1.41a.249.249 0 0 0-.149.125c-.058-.032-.117-.059-.187-.032-.707.286-1.414.57-2.125.848-1.082.426-2.156.871-3.246 1.266-1.559.562-3.125 1.09-4.754 1.41-.602.117-1.2.258-1.805.347a37.805 37.805 0 0 1-3.254.348c-1.21.07-2.406.258-3.629.215-.992-.031-1.992-.004-2.976-.148-1.16-.168-2.336-.235-3.469-.625-.684-.239-1.406-.36-2.023-.766-.028-.016-.063-.024-.094-.031-.953-.14-1.711-.758-2.602-1.059-.047-.016-.097-.031-.137-.055-.59-.39-1.171-.796-1.812-1.093a2.91 2.91 0 0 1-.746-.493c-.488-.433-1.074-.734-1.527-1.23-.211-.227-.383-.484-.594-.71-.086-.09-.047-.177.015-.267.168-.238.418-.296.747-.085.66.417 1.386.699 2.078 1.054.886.453 1.668 1.078 2.558 1.52.324.16.602.425.938.543.297.101.613.195.863.367.516.348 1.11.508 1.672.73 1.05.407 2.144.68 3.238.957 1.29.325 2.594.344 3.895.407 1.12.05 2.25.004 3.37-.059a34.567 34.567 0 0 0 3.856-.445c.727-.121 1.453-.235 2.176-.39 1.27-.27 2.477-.727 3.707-1.11.754-.239 1.461-.617 2.219-.86.219-.07.406-.226.64-.265.07-.012.09-.09.067-.164a3.38 3.38 0 0 0 1.094-.27c1.254-.539 2.543-.976 3.808-1.476 1.344-.528 2.735-.907 4.078-1.434.512-.203 1.082-.285 1.63-.379.171-.031.308-.105.53-.172a3.506 3.506 0 0 0-1.195-.187c-1.11-.004-2.21-.063-3.316-.118-.863-.039-1.727-.062-2.59-.105-.844-.043-1.695-.016-2.535-.098-1.32-.132-2.653-.14-3.957-.34-.77-.117-1.551-.093-2.313-.285-.476-.12-.984-.125-1.472-.23-.946-.211-1.895-.43-2.836-.656-.258-.063-.512-.133-.77-.2a12.667 12.667 0 0 1-1.605-.484c-.582-.223-1.192-.387-1.766-.633a35.983 35.983 0 0 0-2.144-.851c-1.274-.45-2.458-1.121-3.735-1.567-.668-.234-1.273-.605-1.914-.902-.25-.117-.508-.227-.754-.36a123.385 123.385 0 0 0-3.285-1.671c-.227-.11-.375-.309-.578-.446-.418-.289-.918-.422-1.3-.746-.364-.308-.837-.41-1.208-.683-.539-.395-1.156-.664-1.687-1.075-.254-.199-.559-.355-.844-.515a25.198 25.198 0 0 1-2.41-1.567c-.309-.226-.664-.375-.95-.64-.132-.121-.285-.215-.41-.352-.3-.336-.746-.476-1.105-.73-.664-.477-1.453-.75-2.09-1.285-.356-.297-.8-.446-1.18-.72-.492-.362-1.082-.6-1.527-1.007-.344-.309-.738-.488-1.11-.73-.37-.239-.73-.5-1.093-.754a162.046 162.046 0 0 1-3.442-2.457c-.699-.516-1.402-1.047-2.18-1.473a7.647 7.647 0 0 1-1.433-.992c-.281-.25-.594-.461-.89-.7-.188-.152-.422-.16-.645-.21.02-.141-.07-.23-.18-.266-.297-.102-.5-.332-.734-.512a7.034 7.034 0 0 0-.45-.308c-.558-.352-1.132-.7-1.644-1.11-.504-.406-1.094-.675-1.574-1.109-.082-.074-.215-.09-.316-.14-.106-.051-.215-.098-.301-.173-.535-.46-1.098-.89-1.684-1.28-.363-.24-.644-.567-.984-.821-.453-.344-.93-.656-1.301-1.094a.538.538 0 0 0-.156-.125c-.414-.226-.742-.57-1.098-.87-.36-.306-.656-.673-1.031-.974-.656-.53-1.14-1.254-1.817-1.773-.027-.02-.039-.059-.058-.082-.262-.27-.38-.688-.809-.79-.027-.007-.058-.038-.074-.066-.203-.355-.55-.57-.852-.832-.132-.113-.25-.238-.3-.39-.106-.332-.364-.528-.59-.75-.106-.106-.254-.188-.32-.313-.227-.422-.684-.668-.848-1.129-.024-.062-.086-.093-.149-.125-.468-.238-.691-.683-.91-1.125-.035-.074-.054-.175-.133-.199-.386-.105-.539-.406-.644-.754a.45.45 0 0 0-.156-.187c-.508-.36-.762-.938-1.188-1.36-.215-.214-.27-.566-.488-.71a1.927 1.927 0 0 1-.574-.563c-.313-.492-.746-.883-1.102-1.34-.18-.234-.316-.508-.555-.719-.41-.351-.742-.797-1.078-1.222-.113-.14-.21-.297-.347-.426-.508-.477-.91-1.043-1.371-1.566-.122-.137-.118-.336-.168-.508-.047-.149-.325-.078-.434-.266-.188-.312-.469-.555-.691-.836-.164-.203-.407-.37-.457-.637-.043-.218-.188-.347-.317-.476-.344-.328-.406-.524-.254-.977l.36.153c.28.125.683.07.73.53.004.044.145.067.207.118.23.188.563.234.742.484.375.508.852.922 1.254 1.407.184.218.336.496.653.59.062.015.105.12.144.191.149.266.356.477.59.668.18.148.394.281.512.473.359.578.918.972 1.289 1.546.37.579.87 1.07 1.316 1.606.645.777 1.29 1.559 1.938 2.336.39.469.746.965 1.129 1.437.28.348.582.68.859 1.024.402.5.867.957 1.25 1.472.398.536.902.97 1.336 1.47.328.382.52.917 1.082 1.073.039.012.066.07.094.11.183.297.468.492.699.746.39.434.844.82 1.215 1.262.457.539 1.03.933 1.511 1.437.434.457.95.86 1.473 1.242.625.47 1.207 1.012 1.824 1.504.864.688 1.864 1.184 2.653 1.973.152.156.308.351.504.453.609.316 1.203.652 1.765 1.047.457.324.945.61 1.418.91.598.598 1.344.992 2.008 1.5.336.262.707.465 1.023.75.164.145.395.219.586.332.414.25.688.742 1.243.77.046.004.101.078.14.129.258.359.633.597.996.808.399.234.703.61 1.102.797.476.227.793.629 1.222.902.247.153.536.297.735.551.129.16.379.14.539.309.183.183.43.3.594.52.058.073.16.116.273.1.016-.12 0-.245-.129-.28-.183-.047-.254-.188-.355-.32-.18-.231-.414-.419-.602-.634-.691-.78-1.55-1.39-2.21-2.195-.278-.336-.571-.664-.798-1.035-.082-.129-.101-.262-.277-.277-.207-.016-.078-.211-.145-.282-.226-.234-.402-.507-.636-.742-.317-.312-.653-.633-.903-1.02-.355-.554-.668-1.156-1.113-1.628-.312-.332-.508-.742-.836-1.04-.312-.285-.414-.675-.637-1.003-.359-.528-.746-1.04-1.101-1.57-.047-.067-.137-.098-.14-.215-.009-.262-.173-.461-.34-.63a.693.693 0 0 1-.188-.331c-.047-.18-.055-.395-.313-.438-.039-.004-.07-.105-.086-.168-.101-.469-.394-.86-.652-1.226-.336-.485-.516-1.051-.887-1.52-.168-.215-.293-.488-.437-.738-.043-.078-.066-.156-.004-.23.11-.13-.008-.114-.074-.18-.184-.172-.403-.383-.422-.633-.04-.477-.406-.77-.566-1.176-.07-.18-.192-.332-.223-.539-.07-.527-.356-.98-.578-1.441-.121-.25-.024-.575-.293-.75-.125-.594-.375-1.141-.653-1.676-.039-.078-.007-.164-.023-.235-.055-.25-.11-.488-.262-.722-.207-.313-.41-.664-.316-1.082.012-.047.008-.133-.016-.14-.308-.138-.262-.415-.273-.673a.732.732 0 0 0-.121-.316c-.29-.438-.383-.953-.559-1.434a8.317 8.317 0 0 1-.441-1.578c-.118-.734-.426-1.41-.524-2.14-.043-.297-.246-.563-.433-.797a7.2 7.2 0 0 1-.739-1.141c-.023-.043-.039-.113-.07-.125-.289-.094-.348-.363-.488-.578-.113-.168-.274-.309-.395-.488a13.638 13.638 0 0 0-1.23-1.614c-.34-.375-.649-.777-.957-1.18-.512-.671-.93-1.402-1.57-1.976-.376-.34-.692-.762-.981-1.184-.152-.218-.344-.343-.55-.48.05-.297-.329-.438-.27-.742-.418-.281-.637-.73-.942-1.106a18.405 18.405 0 0 1-.953-1.312c-.289-.418-.492-.895-.766-1.317-.546-.843-1.128-1.664-1.617-2.55-.132-.243-.199-.516-.367-.746-.367-.493-.625-1.047-.894-1.59-.133-.27-.18-.59-.477-.754-.059-.035-.082-.106-.07-.176.039-.195-.082-.3-.2-.426-.101-.11-.19-.238-.136-.406.023-.063.043-.133-.04-.164-.35-.14-.296-.531-.472-.785-.226-.324-.36-.735-.543-1.078-.226-.426-.492-.832-.691-1.282-.223-.511-.383-1.046-.637-1.55-.133-.266-.3-.508-.418-.782-.406-.945-.848-1.875-1.2-2.84-.081-.222-.28-.316-.335-.57-.188-.89-.758-1.656-.871-2.574-.004-.031-.028-.063-.051-.086-.43-.422-.492-1.02-.652-1.543-.13-.422-.5-.812-.332-1.316.011-.035-.063-.11-.102-.16-.434-.61-.445-1.368-.715-2.036-.07-.175-.144-.449-.097-.605.085-.309-.184-.387-.25-.586-.176-.531-.336-1.066-.415-1.617-.097-.715-.375-1.403-.355-2.137a.244.244 0 0 0-.05-.137c-.169-.222-.134-.464-.102-.714.035-.29.12-.614-.004-.872-.13-.273-.016-.492.058-.699.11-.308.45-.328.621-.047.204.344-.015.785.239 1.125-.266.254-.063.422.093.621.075.102.086.25.118.38.125.523.21 1.062.382 1.57.22.648.458 1.304.602 1.96.2.876.629 1.665.816 2.536.043.199.067.449.204.64.27.38.277.86.503 1.266.149.273.333.566.403.89.172.801.539 1.528.844 2.278.125.305.125.687.457.902.054.035.086.16.07.23-.05.231.094.384.195.548.07.117.145.226.184.351.21.746.664 1.375.972 2.078.27.61.583 1.211.887 1.813.125.25.153.554.309.754.488.601.64 1.363 1.035 2.008.375.613.64 1.296.937 1.957.133.296.344.543.473.851.113.27.336.531.5.813.55.957 1.113 1.906 1.64 2.879.192.359.364.73.626 1.062.351.45.675.93.945 1.434.344.64.836 1.18 1.16 1.832.074.148.235.34.485.285.312.738.851 1.316 1.343 1.933.485.606 1.012 1.18 1.438 1.832.078.122.203.22.316.313.145.113.29.219.32.418.024.144.141.254.243.3.32.16.465.466.648.727.453.653 1.004 1.23 1.38 1.938.034.07.155.101.276.172-.03-.375-.074-.707-.105-1.032-.043-.535-.094-1.078-.14-1.617-.071-.797.034-1.597-.036-2.394a.359.359 0 0 1 .016-.145c.074-.2.156-.394-.031-.582.195-.402-.168-.812.015-1.242.063-.137.012-.399-.015-.602-.032-.254.07-.492.007-.761-.058-.25-.113-.555 0-.828.114-.262.094-.56.102-.82.012-.419.113-.868-.098-1.282.047-.012.133-.024.133-.031-.012-.285.176-.524.211-.774.082-.597.078-1.203.188-1.812.12-.645.125-1.313.332-1.953.074-.235.25-.493.226-.684-.055-.531.41-.934.29-1.457.265-.297.202-.703.347-1.05.222-.555.36-1.145.597-1.708.329-.793.641-1.594 1.055-2.351.16-.297.18-.649.352-.922.308-.492.566-1.004.86-1.5.503-.844.933-1.73 1.51-2.543.427-.598.7-1.301 1.122-1.918.281-.41.617-.778.851-1.223.118-.226.192-.52.426-.66.281-.164.395-.441.531-.695.114-.211.239-.399.395-.57.625-.704 1.14-1.497 1.723-2.235.21-.27.406-.547.664-.781.148-.13.25-.309.375-.465.16-.203.304-.422.484-.606.285-.293.649-.53.887-.859.254-.351.7-.422.941-.766.04-.054.106-.082.176-.054.086.035.117.113.117.199 0 .113-.058.2-.137.258-.21.16-.363.37-.535.566-.359.406-.691.828-.964 1.293-.051.086-.075.184-.157.25-.554.461-.855 1.125-1.328 1.656-.176.204-.312.465-.496.68-.336.395-.52.914-.863 1.262-.469.48-.73 1.05-1.067 1.597-.214.348-.398.72-.644 1.047-.344.465-.672.938-.965 1.434-.156.262-.395.469-.496.738-.238.617-.547 1.2-.852 1.781-.25.477-.582.922-.773 1.43-.281.738-.75 1.387-1 2.145-.137.402-.379.77-.508 1.183-.156.48-.39.93-.535 1.422-.149.512-.387 1.012-.531 1.531a84.9 84.9 0 0 0-.446 1.715c-.101.387-.004.801-.214 1.156-.208.348-.075.754-.188 1.118-.027.082.082.132.145.187-.051.363-.364.668-.258 1.078.023.098-.04.188-.114.262-.082.074-.082.168-.062.273.101.465-.004.926-.086 1.368-.082.433-.063.863-.11 1.289-.07.605.09 1.226-.136 1.824-.02.047-.043.105-.027.14.285.544.062 1.122.132 1.676.055.41-.066.813-.039 1.2.02.257.086.53.114.808.023.25.011.496.027.742.023.414.195.801.156 1.23-.05.552.164 1.098.09 1.653-.02.145.082.25.106.38.101.624.054 1.273.32 1.874.05.117.008.32.02.484.015.254-.09.57.027.75.148.23.09.497.203.672.3.477.043 1.082.414 1.524.14.898.457 1.758.664 2.64.101.442.312.856.437 1.293.133.47.364.903.446 1.383.02.117.07.207.136.309.122.187.266.39.192.629-.035.113.043.14.074.207.16.332.434.632.305 1.05-.008.028.008.086.023.094.465.188.235.75.555 1.012.187.996.855 1.797 1.113 2.773.094.352.305.703.492 1.04.02.035.078.05.082.109.047.52.442.87.633 1.324.227.52.496 1.016.77 1.516.297.539.676 1.03.898 1.605.168.43.613.7.64 1.195.298.13.321.493.567.668.074.059.18.141.188.22.078.577.582.898.812 1.382.07.144.211.242.235.422.015.148.035.34.28.3.024-.003.071.032.075.055.094.453.477.73.695 1.106.286.484.63.941.973 1.394.344.45.785.84 1.063 1.328.23.41.597.692.843 1.086.145.239.403.45.617.668.563.578 1.149 1.133 1.622 1.797.144.203.398.36.601.543.227.207.473.39.629.664.184.328.535.477.797.715.293.266.57.55.82.852.215.265.473.484.715.707.566.52 1.156 1.015 1.7 1.558.019.02.062.02.148.047-.137-.265-.164-.515-.336-.758-.274-.375-.606-.734-.7-1.218a.68.68 0 0 0-.199-.336c-.476-.461-.554-1.164-1.023-1.625a.583.583 0 0 1-.113-.22c-.141-.394-.254-.792-.559-1.124-.148-.164-.3-.402-.266-.676.012-.09-.02-.156-.07-.226-.434-.575-.668-1.239-.82-1.934a.325.325 0 0 0-.13-.191c-.14-.114-.194-.266-.241-.43a1.825 1.825 0 0 0-.633-.973c-.074-.058-.149-.133-.149-.246.141.059.22.242.399.25.016-.062.039-.094.027-.121-.265-.86-.535-1.723-.781-2.59-.055-.195.066-.347-.047-.55-.25-.446-.351-.97-.406-1.47-.078-.683-.25-1.347-.32-2.023-.063-.605-.25-1.183-.282-1.797-.015-.3-.05-.636-.14-.937-.067-.215-.075-.422-.102-.637-.059-.527.063-1.078-.2-1.578-.015-.027-.015-.066-.019-.098-.074-.554-.062-1.117-.195-1.664-.05-.195.117-.383.05-.586-.163-.507-.245-1.015-.109-1.543.016-.062.036-.156 0-.195-.351-.394-.12-.879-.16-1.312-.023-.27.028-.579.016-.872-.016-.46-.14-.917.012-1.375a.255.255 0 0 0-.028-.19c-.215-.372-.101-.786-.07-1.153.047-.559.016-1.114.027-1.668.012-.653-.105-1.309.106-1.95.035-.109-.008-.195-.02-.292-.027-.368-.176-.739.078-1.094.043-.063-.007-.192-.02-.293-.015-.133-.058-.266-.038-.395.066-.468.097-.937.125-1.41.02-.312-.02-.629.015-.941.067-.59.2-1.168.235-1.758.031-.477.254-.918.207-1.406-.012-.106.062-.223.113-.325.121-.234.367.215.484-.082.004 0 .102.02.125.051.04.047.07.117.075.18.02.23.078.46.023.691a2.345 2.345 0 0 0-.027.93c.086.516.004 1.02.027 1.523.027.762-.223 1.52.004 2.286.07.238-.14.488-.05.734.124.352-.087.715.066 1.062-.227.368.015.747-.032 1.133-.097.793.157 1.606-.09 2.403a.194.194 0 0 0 .02.14c.203.274.106.567.09.867-.02.391-.031.79-.004 1.18.023.274-.148.582-.059.77.16.351.051.691.114 1.03.101.556.02 1.13.07 1.688.059.657.07 1.317.215 1.97.16.718.074 1.48.328 2.187a.682.682 0 0 1 .004.343c-.04.172-.012.332.008.496.156 1.06.351 2.11.46 3.172.06.563.22 1.102.282 1.66.062.586.176 1.172.336 1.739.156.547.222 1.113.383 1.66.175.613.425 1.207.496 1.852.027.21.152.324.363.214Zm0 0"/></g></g></g><g clip-path="url(#B)"><g clip-path="url(#C)"><g clip-path="url(#D)"><path fill="#efddb3" d="M210.473 219.238c-.25-.062-.336-.281-.426-.48-.418-.965-.809-1.946-1.242-2.906-.157-.348-.27-.707-.418-1.051-.008-.016 0-.04-.008-.051-.32-.34-.29-.8-.426-1.203-.144-.422-.258-.86-.39-1.281a7.47 7.47 0 0 1-.31-1.45c-.026-.257-.046-.492-.26-.664-.036-.027-.071-.097-.06-.129.184-.421-.058-.796-.113-1.191-.05-.41-.02-.824-.132-1.23-.075-.27-.047-.575-.02-.836.066-.637-.145-1.239-.121-1.875.027-.774.027-1.567-.121-2.344a.385.385 0 0 1 .043-.238c.277-.461.23-.957.172-1.45a1.223 1.223 0 0 1 .015-.492c.067-.258.028-.52.059-.77.066-.492.035-.984.078-1.476.059-.617.25-1.215.273-1.828.016-.371.168-.727.168-1.063 0-.41.184-.753.211-1.14.032-.48.157-.945.29-1.41.081-.301.152-.61.171-.918.012-.176.059-.328.117-.477.254-.637.41-1.305.551-1.976.145-.704.297-1.403.48-2.098.16-.633.329-1.281.223-1.957a.321.321 0 0 0-.125-.234c-.386.289-.668.632-.8 1.117a3.568 3.568 0 0 1-.34.758c-.278.484-.418.996-.532 1.527-.007.031-.015.066-.03.094-.415.78-.54 1.656-.84 2.476-.141.38-.223.809-.286 1.227-.02.148-.043.293-.097.433-.141.368-.165.782-.297 1.137-.188.504-.18 1.027-.274 1.527-.14.762-.363 1.528-.285 2.317.024.254-.074.46-.14.672-.141.484-.004.972-.11 1.457-.101.46-.07.949-.066 1.43.011.62-.067 1.242-.11 1.863-.007.097-.058.203-.035.293.168.714.004 1.441.07 2.156.028.312.149.621-.007.926.234.418-.067.922.222 1.328.047.062.047.129.008.183-.187.254-.082.508-.008.762.106.356.153.707.149 1.082-.008.55.215 1.067.308 1.606.145.828.485 1.609.582 2.449.032.273.286.469.328.765.02.137.079.293.083.43.007.23.097.41.226.586.29.395.371.875.531 1.324.157.45.239.926.52 1.328.117.176.191.383.289.575.078.16.02.289-.09.406-.316-.09-.41-.414-.578-.625-.543-.695-1.09-1.387-1.59-2.117-.5-.739-.887-1.54-1.371-2.29-.18-.28-.34-.581-.535-.855a2.44 2.44 0 0 1-.324-.703c-.164-.512-.414-.984-.59-1.492a9.824 9.824 0 0 0-.469-1.117 1.231 1.231 0 0 1-.11-.371c-.038-.223.036-.5-.23-.641.074-.266-.094-.492-.113-.738-.008-.086-.02-.172-.066-.23-.118-.145-.114-.266-.09-.458a1.064 1.064 0 0 0-.192-.722c-.246-.336-.23-.708-.27-1.07-.07-.665-.214-1.317-.288-1.977-.035-.278-.14-.598 0-.891.043-.086.011-.11-.063-.14-.074-.032-.16-.09-.12-.188.151-.367.01-.723-.056-1.078-.066-.34-.023-.692-.015-1.028.015-.77-.067-1.53-.043-2.296.02-.668 0-1.336.054-2.004.012-.145.223-.286-.058-.387-.043-.016-.043-.086-.008-.129.332-.426.125-.934.215-1.398.078-.403-.031-.84.187-1.223.055-.106-.02-.195-.023-.29-.008-.163-.043-.339.04-.491.093-.168.245-.325.023-.508-.024-.016 0-.094.007-.145.11-.632.13-1.3.356-1.89.273-.719.285-1.5.652-2.192.106-.207.125-.5.188-.75.129-.52.367-.996.535-1.496.137-.398.324-.777.441-1.187.188-.657.48-1.29.754-1.918.285-.664.531-1.34.883-1.973.289-.523.55-1.07.82-1.605.29-.578.696-1.075.946-1.668a.66.66 0 0 1 .214-.27c.078-.058.168-.101.196-.215.11-.457.422-.797.652-1.187.633-1.094 1.316-2.149 2.106-3.14.351-.442.648-.942 1.007-1.384.395-.484.653-1.05 1.04-1.543.386-.48.68-1.039 1.015-1.558.348-.535.621-1.121.988-1.63.348-.48.528-1.066 1-1.468.164-.137.23-.387.344-.59.41-.73.938-1.383 1.418-2.07.355-.508.773-.914 1.242-1.293.207-.164.457-.059.512.21.008.048.05.095.047.142-.031.238-.07.476-.11.714.344.153.067.426.09.63.055.511.012 1.034.016 1.55.012.734.137 1.453.156 2.184.008.304.07.593.14.89.106.442.204.895.216 1.344.011.512.09 1.012.187 1.504.156.773.191 1.566.379 2.324.164.653.102 1.348.383 1.973.02.043.043.12-.004.129-.32.058-.098.148-.05.285.151.457.144.941.19 1.418.016.152-.14.308.083.457.078.055-.082.262.015.441.106.188.149.45.117.664-.039.235-.011.442.055.66.02.075.043.153-.023.235-.149.187-.18.375.039.539.02.016.023.07.007.098-.16.293.036.547.098.812.078.313-.02.613 0 .918.05.824.106 1.649.102 2.477-.004.484-.078.972-.114 1.457-.039.53-.171 1.058-.101 1.601.039.328-.016.688-.106 1.008-.078.27-.105.543-.086.805.024.27.016.543-.062.781-.223.695-.188 1.422-.29 2.129-.007.066.009.137-.019.195-.246.551-.195 1.156-.343 1.73-.13.505-.317.997-.395 1.52a2.204 2.204 0 0 1-.418 1.024c-.11.144.02.277-.05.422-.266.574-.465 1.175-.723 1.753-.25.559-.457 1.157-.723 1.704-.187.386-.293.793-.492 1.168-.2.375-.309.785-.457 1.18-.149.394-.41.745-.637 1.105a3.507 3.507 0 0 0-.305.59c-.046.128.036.332-.16.425-.129.063-.187.207-.258.348-.48.965-.902 1.957-1.332 2.95-.218.51-.527.987-.738 1.507-.203.496-.562.938-.691 1.434-.11.43-.496.75-.426 1.226.023.156-.176.149-.219.297a66.166 66.166 0 0 1-.515 1.773c-.188.61-.356 1.211-.489 1.836a9.859 9.859 0 0 0-.21 1.653c-.008.195-.22.336-.087.566.098.172-.093.422-.035.563.188.43.012.847.067 1.265Zm0 0"/></g></g></g><g clip-path="url(#E)"><g clip-path="url(#F)"><g clip-path="url(#G)"><path fill="#efddb3" d="M221.559 240.227c.02.074.004.148-.067.164-.234.039-.422.195-.64.261-.758.246-1.465.625-2.22.864-1.23.382-2.437.84-3.706 1.109-.723.156-1.453.27-2.176.39a34.559 34.559 0 0 1-3.855.442c-1.122.066-2.25.113-3.372.063-1.304-.063-2.609-.083-3.894-.407-1.098-.277-2.188-.547-3.238-.957-.567-.219-1.157-.383-1.676-.73-.246-.172-.563-.262-.86-.367-.335-.118-.613-.383-.937-.543-.89-.446-1.672-1.07-2.559-1.52-.691-.355-1.418-.637-2.082-1.055-.328-.21-.578-.152-.742.086-.062.09-.097.18-.02.266.212.227.383.484.598.71.453.497 1.04.798 1.524 1.231.226.203.472.364.746.489.644.297 1.226.703 1.812 1.097.043.024.094.04.14.055.888.3 1.65.914 2.602 1.059.032.007.067.015.094.03.617.407 1.34.528 2.024.766 1.129.391 2.304.458 3.468.625.985.145 1.985.118 2.977.149 1.219.043 2.418-.145 3.625-.215a37.895 37.895 0 0 0 3.258-.348c.605-.09 1.203-.23 1.804-.351 1.63-.32 3.196-.848 4.75-1.406 1.094-.395 2.168-.84 3.25-1.266.708-.277 1.415-.563 2.122-.848.07-.027.129 0 .191.032-.188.449-.598.722-.973.945-.613.367-1.109.883-1.722 1.246-.606.355-1.2.742-1.817 1.082-.402.223-.754.531-1.168.742-1.007.524-1.898 1.238-2.937 1.719-.281.133-.563.34-.809.55-.504.442-1.191.587-1.652 1.09-.05.051-.152.055-.227.087-.261.109-.504.23-.722.425-.22.2-.47.371-.758.469-.367.121-.68.352-.996.547a13.96 13.96 0 0 1-1.809.941c-1.336.567-2.668 1.157-4.125 1.403-.691.117-1.383.144-2.07.172-.594.027-1.211-.06-1.817-.13a38.521 38.521 0 0 1-2.105-.312c-.816-.133-1.606-.394-2.406-.598a16.939 16.939 0 0 1-1.852-.578c-.55-.21-1.07-.5-1.601-.761-.516-.258-1.02-.536-1.543-.774-.188-.086-.297-.254-.47-.36-.66-.394-1.296-.823-1.937-1.245-.132-.09-.293-.176-.336-.352-.015-.055-.039-.117-.078-.11-.449.071-.535-.421-.867-.546-.328-.129-.523-.445-.789-.656a22.54 22.54 0 0 1-1.117-.903c-.211-.187-.453-.328-.594-.593a.533.533 0 0 0-.289-.25c-.238-.075-.328-.282-.488-.43-.14-.133-.36-.2-.52-.352-.383-.355-.758-.722-1.172-1.035-.355-.262-.714-.523-1.03-.824-.528-.504-1.18-.863-1.677-1.402-.023-.024-.05-.04-.082-.059-.613-.371-1.12-.887-1.726-1.262-.41-.25-.774-.547-1.137-.855-.582-.5-1.18-.992-1.867-1.348-.031-.02-.063-.031-.086-.05-.57-.551-1.285-.848-2.008-1.126a.17.17 0 0 1-.047-.02c-.265-.316-.64-.437-1.008-.507-.039-.133.043-.137.094-.164 1.75-.906 3.531-1.75 5.39-2.41.45-.16.927-.254 1.391-.387.715-.203 1.454-.3 2.192-.398.969-.13 1.937-.098 2.906-.118.66-.015 1.316.043 1.965.055.726.02 1.492.028 2.187.313.204.082.387.027.582.07.813.191 1.653.305 2.45.55.504.157 1.007.376 1.511.524.618.184 1.16.574 1.813.63.05.003.125.003.144.034.274.403.825.317 1.141.649a.477.477 0 0 0 .176.093c.941.29 1.758.86 2.648 1.258.832.375 1.649.79 2.45 1.215.957.504 1.953.934 2.921 1.402.684.329 1.371.68 2.125.875.414.106.805.332 1.22.45.968.277 1.948.523 2.921.78.285.079.574.157.855.243.059.016.102.066.18.047.484-.106.942.09 1.406.152.79.106 1.57.227 2.352.352.113.02.2 0 .277-.059.07-.054.149-.093.223-.043.371.262.781.137 1.18.168.359.032.714.028 1.07.035 1.098.036 2.187-.03 3.273-.14.149-.016.301-.02.45-.031Zm0 0"/></g></g></g><g clip-path="url(#H)"><g clip-path="url(#I)"><g clip-path="url(#J)"><path fill="#efddb3" d="M156.48 172.523c-.25.051-.406-.136-.484-.289-.324-.648-.816-1.187-1.16-1.828a9.67 9.67 0 0 0-.945-1.433c-.262-.332-.434-.703-.625-1.063-.528-.972-1.09-1.922-1.641-2.879-.164-.281-.387-.543-.5-.812-.129-.309-.34-.555-.473-.852-.293-.66-.562-1.344-.937-1.957-.395-.648-.547-1.406-1.035-2.012-.157-.195-.184-.503-.309-.75-.305-.601-.621-1.203-.887-1.816-.308-.7-.761-1.332-.972-2.074-.035-.13-.114-.238-.184-.352-.101-.168-.246-.32-.195-.547.015-.07-.016-.199-.07-.23-.333-.211-.333-.594-.458-.906-.304-.746-.671-1.477-.843-2.274-.075-.324-.25-.617-.403-.89-.226-.41-.234-.891-.504-1.27-.136-.187-.16-.437-.203-.64-.187-.872-.617-1.657-.812-2.532-.149-.656-.387-1.312-.606-1.96-.172-.512-.257-1.048-.382-1.571-.032-.129-.043-.281-.118-.379-.156-.2-.359-.371-.093-.625-.254-.336-.036-.781-.239-1.121-.172-.281-.511-.266-.62.047-.075.207-.188.422-.055.699.12.258.035.578 0 .867-.032.25-.067.496.101.715.027.04.05.094.05.14-.023.735.255 1.423.356 2.137.078.551.239 1.086.414 1.618.067.195.336.277.25.586-.046.156.028.43.098.601.27.672.281 1.43.715 2.035.039.055.117.125.101.164-.167.508.204.895.333 1.313.16.523.222 1.125.652 1.547a.14.14 0 0 1 .05.082c.118.922.688 1.687.872 2.578.054.25.258.347.336.57.351.965.797 1.895 1.199 2.84.117.27.285.516.418.781.254.5.414 1.035.637 1.551.195.445.464.856.691 1.277.188.348.316.758.543 1.078.18.254.121.649.473.786.082.035.062.101.043.168-.059.164.03.297.132.406.118.121.239.23.2.426-.012.07.011.14.07.172.3.167.344.484.476.753.27.547.528 1.102.895 1.594.172.227.234.5.371.746.484.887 1.067 1.707 1.613 2.551.274.422.477.899.766 1.316.305.446.61.891.953 1.313.305.375.524.824.942 1.105-.059.301.32.442.27.743a23.258 23.258 0 0 1-3.438-2.036c-.5-.359-1.024-.703-1.57-1.011a5.19 5.19 0 0 1-.91-.649c-.224-.199-.505-.386-.759-.562-.34-.238-.726-.461-.968-.824-.016-.024-.028-.063-.051-.075-.664-.343-1.196-.867-1.758-1.343a17.3 17.3 0 0 1-1.383-1.293c-.531-.563-1.074-1.118-1.558-1.715-.235-.285-.582-.504-.665-.91-.019-.094-.183-.102-.261-.2-.356-.457-.735-.894-1.051-1.386-.234-.371-.426-.785-.703-1.11-.356-.41-.574-.879-.817-1.343-.035-.07-.039-.153-.125-.204-.21-.12-.32-.347-.367-.554-.105-.465-.449-.793-.636-1.207-.13-.293-.344-.551-.286-.903-.363-.418-.328-.98-.511-1.464a8.234 8.234 0 0 1-.34-1.239c-.145-.648-.242-1.308-.387-1.957-.05-.23-.125-.445-.098-.68a.182.182 0 0 0-.035-.136c-.187-.2-.152-.434-.16-.676a4.895 4.895 0 0 0-.117-.816c-.113-.543-.129-1.106-.2-1.657-.073-.578-.077-1.168-.183-1.75-.055-.293-.137-.632.012-.953.047-.093.031-.238-.004-.34-.133-.37.012-.738.016-1.101.007-.395-.051-.797.02-1.2.019-.12.01-.238.07-.367.09-.195.257-.402.054-.636-.043-.047 0-.121.02-.188.132-.39.125-.797.148-1.203.02-.34.043-.683.16-1.02.13-.367.223-.75.223-1.152 0-.445.07-.883.226-1.308.122-.336.141-.707.204-1.059.105-.574.199-1.148.375-1.715.14-.457.183-.949.289-1.422.054-.254.168-.5.222-.75.121-.543.34-1.054.414-1.609.047-.328.262-.621.371-.95.227-.687.528-1.35.86-1.991.07-.137.117-.286.265-.348a.348.348 0 0 0 .211-.317c.02-.546.43-.722.825-.859.664-.226.668-.2.71.496.024.387.016.75-.152 1.13-.152.355-.066.769-.09 1.16-.02.32-.039.644-.035.956.012.403-.176.875.23 1.215.036.031.032.125.028.188-.043.445.078.851.332 1.21.254.364.399.79.508 1.188.133.473.43.824.637 1.23.265.524.57 1.051.93 1.5.382.477.69 1 1.073 1.477.333.402.528.926.875 1.309.415.46.711 1.015 1.149 1.437.418.403.742.88 1.129 1.301.62.68 1.285 1.328 1.84 2.063.558.738 1.199 1.414 1.707 2.199.394.61.812 1.215 1.207 1.828.207.312.492.601.511 1.015.004.079.083.137.141.2.086.093.195.21.203.32.043.473.38.813.504 1.238.047.16.223.317.055.504-.012.02-.004.055-.008.082.367.02.25.356.309.54.066.206.132.44.093.679-.03.207.184.285.235.48.133.461.273.899.195 1.399-.027.187.016.394.152.61.164.245.059.605.059.91-.004.468.07.94-.004 1.41-.055.316-.238.636-.148.953.082.289.047.601-.075.78-.222.325.11.747-.25 1.005.243.242-.129.465-.058.617.125.273.012.496-.047.711-.121.46-.137.914-.113 1.383.023.492-.223.949-.176 1.453.02.195.02.394.066.586.04.144.094.285.02.437-.082.172-.004.332.015.504.047.383.207.781.012 1.172.238.457.098.969.227 1.445.144.516.195 1.059.36 1.563.151.457.194.957.51 1.371.141.176.153.453.223.691Zm0 0"/></g></g></g><g clip-path="url(#K)"><g clip-path="url(#L)"><g clip-path="url(#M)"><path fill="#efddb3" d="M164.402 165.879c-.062-.05-.168-.102-.14-.188.113-.363-.02-.765.187-1.113.211-.355.113-.773.211-1.16.145-.57.293-1.145.45-1.711.14-.523.382-1.023.53-1.531.145-.496.38-.942.532-1.426.133-.41.375-.777.508-1.18.254-.757.718-1.406 1-2.148.195-.504.527-.95.777-1.43.305-.578.61-1.164.848-1.781.105-.27.343-.477.496-.738.293-.493.625-.965.969-1.43.238-.328.425-.703.644-1.05.336-.544.598-1.118 1.066-1.595.34-.347.528-.87.864-1.265.183-.211.316-.477.496-.676.472-.531.773-1.2 1.328-1.66.078-.067.105-.164.156-.25.274-.465.606-.883.961-1.29.176-.195.32-.41.54-.566a.323.323 0 0 0 .136-.257c0-.09-.031-.164-.121-.2-.067-.027-.133 0-.172.055-.242.34-.688.414-.941.766-.239.328-.602.562-.891.86-.18.183-.324.398-.484.6-.125.16-.227.337-.372.47-.257.23-.453.507-.664.777-.582.742-1.097 1.531-1.726 2.234a2.89 2.89 0 0 0-.39.57c-.137.258-.255.532-.536.7-.234.136-.305.433-.426.66-.234.445-.57.812-.847 1.219-.422.62-.7 1.324-1.121 1.921-.579.809-1.008 1.696-1.512 2.543-.297.493-.551 1.008-.86 1.496-.171.278-.191.63-.355.926-.414.754-.723 1.555-1.055 2.348-.234.562-.37 1.152-.597 1.71-.137.345-.078.75-.348 1.048.125.523-.34.925-.285 1.46.02.188-.156.446-.23.68-.204.641-.212 1.309-.329 1.957-.11.61-.105 1.211-.187 1.809-.035.25-.223.492-.211.773 0 .012-.086.024-.133.036-.211-.122-.297-.368-.297-.551.004-.473-.27-.856-.332-1.297-.066-.473-.21-.926-.309-1.395-.101-.457-.175-.93-.214-1.386-.036-.387-.239-.743-.168-1.137.066-.375-.114-.754-.078-1.102.039-.422-.079-.828.007-1.261.063-.328.004-.72-.011-1.082-.032-.711-.051-1.426.07-2.125.035-.207-.024-.426.062-.602.11-.223-.05-.45.004-.598.2-.546.192-1.136.383-1.68.094-.261.149-.527.176-.8.016-.168.035-.332.164-.457.09-.086.113-.195.105-.316-.011-.2-.14-.438.196-.512.062-.016.035-.082.031-.13-.031-.362.125-.675.262-.995.152-.363.277-.735.406-1.106.219-.629.527-1.215.824-1.808.207-.414.43-.836.543-1.282.063-.253.235-.378.344-.574.469-.847.898-1.719 1.465-2.508.316-.441.547-.945.93-1.34.335-.347.554-.777.874-1.14.262-.3.56-.559.833-.84.148-.152.246-.344.41-.484.609-.52 1.191-1.07 1.808-1.582.656-.551 1.305-1.114 1.98-1.633.802-.613 1.66-1.152 2.505-1.703 1.09-.715 2.27-1.29 3.308-2.082.34-.262.664-.551.969-.84.32-.309.687-.566.988-.89.43-.458.93-.837 1.29-1.36.179-.254.413-.473.652-.676.32-.27.511-.664.8-.93.477-.441.739-1.054 1.27-1.433.117-.086.195-.219.277-.344.18-.27.489-.328.746-.453.192-.094.485.242.477.48-.004.293-.168.543-.285.782-.153.304-.184.62-.246.93-.04.202-.047.413-.117.613-.079.218-.172.457-.157.675.024.262-.18.442-.187.633-.004.34-.063.668-.098 1.004-.043.438-.14.86-.21 1.29-.09.515-.25 1.015-.298 1.538-.007.125.149.438-.191.469.059.2.101.39.02.602-.07.18-.133.37-.157.566-.078.676-.344 1.309-.445 1.96-.09.595-.438 1.106-.426 1.712-.277.348-.156.863-.504 1.18-.023.02-.058.05-.058.078-.016.816-.493 1.492-.657 2.265-.09.422-.304.82-.507 1.211-.122.227-.239.461-.325.711-.203.586-.457 1.153-.703 1.723-.355.812-.855 1.555-1.215 2.367-.148.336-.347.672-.675.898-.102.07-.227.157-.18.364.043.183-.14.336-.266.453-.097.101-.265.219-.3.305-.204.484-.586.828-.88 1.238-.328.465-.624.965-1.003 1.383-.543.59-1 1.25-1.54 1.84-.312.34-.667.625-.96.984-.371.46-.813.86-1.207 1.293-.266.289-.649.465-.817.86-.035.081-.183.14-.293.167-.14.031-.21.13-.222.235-.032.222-.172.332-.344.43-.367.206-.621.546-.922.827-.254.235-.516.465-.773.7-.782.703-1.622 1.347-2.36 2.097-.652.66-1.281 1.356-1.754 2.168-.07.047-.11.102-.078.188a.412.412 0 0 1-.176.242Zm0 0"/></g></g></g><g clip-path="url(#N)"><g clip-path="url(#O)"><g clip-path="url(#P)"><path fill="#efddb3" d="M183.207 156.117c-.309.137-.644.27-.883.535-.394.442-.652.977-.98 1.461-.227.332-.356.735-.504 1.114-.149.37-.477.632-.594 1.027-.086.277-.32.52-.406.777-.13.399-.371.735-.5 1.14-.113.364-.344.72-.512 1.083-.27.598-.516 1.21-.777 1.812-.348.793-.68 1.594-.973 2.41-.055.149-.066.297-.183.442-.106.129-.114.36-.165.539-.109.367-.375.691-.351 1.098 0 .05.02.09-.024.132-.25.227-.25.57-.351.856-.219.625-.356 1.277-.598 1.898-.16.403-.187.856-.406 1.243a.217.217 0 0 0-.023.14c.082.336-.356.59-.149.95.012.015-.047.078-.082.117-.195.207-.25.488-.25.738-.008.605-.422 1.148-.238 1.773.023.067-.02.125-.067.18-.16.191-.16.418-.171.652-.012.301-.02.625-.141.891-.082.188.055.36-.05.508-.216.297-.2.625-.165.96.008.083.043.165-.004.243-.176.312-.12.668-.195.996-.078.328-.067.664-.086.988-.035.555-.055 1.114-.11 1.664-.027.301.086.578.016.883-.097.418-.066.852-.023 1.285.062.59-.024 1.184.078 1.79.055.324.105.683.086 1.042-.035.602.101 1.211.152 1.82.012.126.059.247.074.352.09.676.13 1.352.313 2.02.101.37.101.77.152 1.156.035.27.09.531.125.797.035.262.043.527.113.785.07.27.09.55.145.824.05.235.285.434.148.715.223.942.461 1.879.762 2.8.18.556.512 1.04.707 1.599.121.355.356.699.563 1.035.105.168.32.226.355.496.028.187.207.379.324.562.282.438.434.946.825 1.328.109.106.304.254.324.383.086.551.582.79.863 1.184.399.555.93 1.012 1.402 1.512.145.062.22.246.403.25.015-.059.035-.094.027-.118-.266-.859-.539-1.722-.781-2.593-.055-.192.066-.348-.047-.547-.254-.45-.352-.969-.41-1.469-.074-.684-.25-1.348-.32-2.027-.063-.602-.247-1.18-.278-1.793-.02-.301-.05-.637-.144-.938-.067-.215-.075-.426-.098-.637-.059-.527.059-1.078-.203-1.578-.012-.03-.012-.066-.016-.101-.074-.551-.062-1.113-.199-1.66-.047-.196.117-.387.055-.586-.164-.508-.246-1.016-.11-1.547.016-.059.036-.156 0-.192-.351-.398-.12-.882-.16-1.312-.023-.27.028-.582.016-.875-.016-.457-.14-.914.012-1.375a.245.245 0 0 0-.028-.188c-.215-.375-.101-.789-.074-1.156.05-.558.02-1.11.031-1.668.012-.652-.105-1.308.106-1.949.035-.106-.012-.195-.02-.293-.027-.367-.176-.738.078-1.094.043-.062-.008-.191-.02-.293-.015-.129-.058-.265-.038-.39.066-.47.097-.942.125-1.41.015-.317-.02-.633.015-.946.067-.586.2-1.168.235-1.758.03-.476.254-.918.207-1.406-.012-.101.062-.219.113-.324.121-.234.363.215.484-.078.004-.004.102.015.125.047.04.05.07.117.075.18.02.23.074.46.023.695a2.343 2.343 0 0 0-.027.93c.086.515.004 1.015.027 1.519.027.762-.223 1.52.004 2.285.07.238-.14.488-.05.734.124.352-.09.72.066 1.063-.227.367.015.75-.032 1.133-.097.793.157 1.61-.09 2.402a.194.194 0 0 0 .02.14c.203.274.105.571.09.868a9.97 9.97 0 0 0-.004 1.183c.023.27-.149.579-.059.77.16.348.047.691.114 1.031.101.555.02 1.125.07 1.684.059.656.07 1.316.215 1.969.156.722.074 1.48.328 2.187a.698.698 0 0 1 .004.348c-.04.168-.012.332.008.496.156 1.055.347 2.11.46 3.172.06.558.22 1.097.282 1.656.062.59.176 1.176.336 1.738.156.551.222 1.114.383 1.664.175.61.425 1.203.496 1.848.023.187.148.3.359.191.098-.351.414-.629.371-1.03.434-.919.66-1.903.95-2.872.074-.262.015-.586.163-.77.309-.375.235-.875.508-1.242.176-.234.13-.543.23-.804a59.85 59.85 0 0 0 .598-1.586c.211-.59.348-1.211.645-1.77a.374.374 0 0 0 .047-.14c.05-.567.168-1.118.46-1.606.094-.16-.117-.285.005-.398.254-.239.273-.598.328-.88.129-.624.285-1.234.508-1.835.093-.258.226-.528.253-.793.04-.403.211-.758.29-1.145.109-.543.316-1.078.328-1.62.015-.72.379-1.376.3-2.098.204-.235.118-.54.2-.801.109-.348.02-.715.082-1.074.035-.235-.04-.54-.07-.81-.024-.187.14-.288.081-.491-.101-.344-.136-.719-.172-1.063-.039-.398-.082-.804-.109-1.21-.02-.286-.027-.571-.043-.86-.031-.316-.078-.629-.094-.945-.011-.227-.199-.395-.187-.621l-.047-.13c.031-.035.031-.074 0-.113.074-.422-.152-.797-.191-1.199-.008-.094-.141-.164-.04-.293.106-.129-.074-.172-.109-.258.223-.199-.172-.203-.12-.39.085-.313-.298-.59-.11-.938.027-.05-.07-.097-.125-.137-.075-.054-.07-.12-.078-.21-.051-.622-.227-1.215-.36-1.82-.156-.704-.617-1.325-.586-2.087.004-.074-.05-.156-.09-.23-.355-.61-.457-1.313-.714-1.957-.25-.633-.454-1.278-.711-1.903-.047-.117-.043-.222-.047-.324.004-.133-.028-.254-.04-.375-.042-.367-.327-.652-.335-1-.024-.68-.317-1.297-.41-1.96-.067-.477-.141-1.005-.407-1.454a.96.96 0 0 1-.125-.62c.051-.368-.117-.704-.125-1.063-.007-.36-.214-.739-.18-1.051.055-.442-.25-.848-.034-1.281.054-.11-.122-.258-.032-.422.114-.215.043-.45.04-.68-.016-.535-.133-1.094.156-1.594.093-.164.144-.312 0-.449-.168-.156-.395-.309-.602-.215Zm4.867 22.215c-.035-.016-.027-.059.004-.082.059-.04.113-.031.16.023-.02.118-.097.086-.164.059Zm0 0"/></g></g></g><g clip-path="url(#Q)"><g clip-path="url(#R)"><g clip-path="url(#S)"><path fill="#efddb3" d="M160.707 190.945c-.277-.273-.441-.629-.684-.933a94.831 94.831 0 0 0-2.101-2.586c-.242-.29-.477-.59-.738-.867-.121-.13-.305-.137-.395-.29-.363-.597-.91-1.03-1.426-1.476-.648-.559-1.215-1.203-1.945-1.672-.64-.41-1.168-.976-1.824-1.379-.266-.164-.574-.265-.809-.453-1.234-.98-2.738-1.496-4.05-2.34-.786-.219-1.434-.722-2.176-1.035-.336-.137-.653-.324-.985-.48-.433-.204-.793-.57-1.312-.598-.059-.004-.117-.055-.176-.09-.805-.437-1.613-.875-2.414-1.32-.649-.36-1.297-.715-1.902-1.149-.887-.636-1.52-1.539-2.32-2.27a.165.165 0 0 1-.063-.073c-.235-.461-.66-.54-1.102-.473-.594.086-.8.547-.555 1.121.051.117.086.246.098.383.02.258.008.555.129.77.145.261-.02.535.14.78.098.15-.042.352.051.528.207.39.309.82.426 1.246.07.246.172.492.313.707.12.184.164.395.164.574.004.313.09.59.219.848.171.34.222.734.488 1.031.05.059.183.168.117.246-.164.196.02.336.082.43.25.379.293.852.555 1.215.16.226.105.52.258.742.261.434.437.902.617 1.371.035.094.02.195.16.188.07.257.246.5.305.73.132.55.527.969.656 1.508.008.031.027.074.05.082.282.113.274.39.36.613.027.078.02.184.07.238.25.29.348.668.563.981.207.305.445.602.55.969.126.433.47.742.688 1.12.25.427.465.884.781 1.282.211.27.5.524.625.809.235.53.668.925.895 1.449.05.125.07.285.164.36.238.206.36.503.598.702.226.192.117.653.543.688.011.344.312.488.484.723.168.226.394.406.512.671.12.27.472.27.605.563.059.133.313.176.27.422-.008.054.047.11.105.152.453.328.813.766 1.16 1.184.582.699 1.281 1.265 1.934 1.883.168.16.34.316.523.453.164.12.477.086.485.347.007.32.441.168.437.457.582.356 1.055.86 1.613 1.235.676.453 1.356.91 2.051 1.332.285.172.574.379.828.57.266.207.692.215.817.598.719.437 1.422.91 2.168 1.308.566.301 1.133.614 1.718.88.598.273 1.192.558 1.813.777.707.246 1.414.5 2.14.699.739.199 1.477.383 2.215.558.57.141 1.153.227 1.727.356.64.144 1.281.312 1.945.312.172 0 .325.047.489.07.015-.14-.07-.226-.184-.265-.293-.098-.496-.328-.734-.508a6.079 6.079 0 0 0-.45-.308c-.558-.352-1.129-.7-1.64-1.114-.504-.402-1.098-.672-1.578-1.105-.082-.074-.211-.09-.317-.14-.101-.055-.215-.098-.3-.173a16.204 16.204 0 0 0-1.684-1.28c-.36-.24-.645-.567-.984-.825-.454-.34-.93-.652-1.301-1.094a.65.65 0 0 0-.153-.12c-.418-.227-.746-.571-1.101-.872-.356-.305-.656-.672-1.028-.973-.66-.53-1.144-1.254-1.82-1.773-.023-.02-.035-.059-.058-.082-.262-.27-.38-.688-.809-.79-.027-.007-.055-.038-.07-.066-.207-.355-.555-.57-.856-.832-.129-.113-.246-.238-.297-.39-.105-.332-.367-.528-.593-.75-.106-.106-.25-.188-.317-.313-.23-.422-.683-.668-.851-1.129-.024-.062-.082-.093-.145-.125-.473-.238-.695-.683-.91-1.125-.04-.074-.055-.175-.137-.199-.387-.11-.535-.406-.644-.754a.402.402 0 0 0-.157-.187c-.504-.36-.761-.938-1.183-1.36-.215-.215-.274-.566-.488-.71a1.927 1.927 0 0 1-.575-.563c-.316-.492-.75-.883-1.101-1.34-.184-.234-.317-.508-.559-.719-.41-.351-.738-.797-1.078-1.222-.113-.141-.207-.297-.344-.426-.508-.477-.914-1.047-1.375-1.567-.12-.136-.113-.34-.168-.507-.047-.149-.324-.078-.433-.266-.188-.313-.465-.555-.692-.836-.16-.207-.402-.371-.457-.64-.043-.215-.183-.344-.316-.473-.344-.332-.406-.528-.254-.98.121.05.242.1.363.156.278.125.684.07.727.53.004.044.144.063.207.114.23.188.562.238.742.484.375.512.852.926 1.254 1.407.184.222.336.5.652.59.063.02.106.125.145.191.148.27.355.477.59.668.18.152.394.285.511.476.36.575.918.97 1.29 1.543.37.579.874 1.075 1.316 1.606.644.781 1.289 1.562 1.937 2.34.391.469.746.965 1.13 1.437.28.344.581.676.859 1.024.406.5.867.953 1.25 1.468.398.536.902.97 1.336 1.473.328.379.52.918 1.082 1.074.039.012.07.067.093.11.184.293.47.492.7.742.39.434.843.82 1.214 1.266.457.535 1.032.93 1.512 1.437.434.457.95.856 1.473 1.242.629.465 1.207 1.008 1.824 1.5.863.688 1.863 1.188 2.652 1.973.153.156.309.355.504.457.61.316 1.203.652 1.766 1.047.457.32.945.605 1.418.91-.012-.215-.102-.399-.223-.574a11.319 11.319 0 0 1-.637-1.09c-.23-.445-.449-.91-.699-1.336-.375-.64-.715-1.305-1.152-1.914a6.58 6.58 0 0 1-.7-1.227c-.242-.59-.702-1.054-.874-1.672-.055-.199-.32-.226-.356-.355-.039-.16.028-.36-.097-.508-.266-.324-.399-.719-.54-1.101a7.544 7.544 0 0 0-.542-1.196c-.391-.656-.778-1.312-1.075-2.02-.058-.14-.234-.16-.273-.331-.102-.446-.332-.84-.527-1.25-.168-.38-.473-.664-.696-1.008-.054-.27-.277-.438-.414-.656-.41-.653-.77-1.348-1.328-1.903Zm0 0"/></g></g></g><g clip-path="url(#T)"><g clip-path="url(#U)"><g clip-path="url(#V)"><path fill="#efddb3" d="M164.648 165.45c-.066.046-.109.105-.078.19.055-.054.09-.113.078-.19Zm0 0"/></g></g></g></svg>